<?xml version="1.0" standalone="no"?>
<!DOCTYPE svg PUBLIC "-//W3C//DTD SVG 20010904//EN"
 "http://www.w3.org/TR/2001/REC-SVG-20010904/DTD/svg10.dtd">
<svg version="1.0" xmlns="http://www.w3.org/2000/svg"
 width="150.000000pt" height="150.000000pt" viewBox="0 0 150.000000 150.000000"
 preserveAspectRatio="xMidYMid meet">
<metadata>
Created by potrace 1.11, written by Peter Selinger 2001-2013
</metadata>
<g transform="translate(0.000000,150.000000) scale(0.100000,-0.100000)"
fill="#000000" stroke="none">
<path d="M168 1264 c-5 -4 -8 -237 -8 -517 l0 -509 223 5 c189 4 233 8 297 27
241 70 370 241 370 490 0 239 -113 399 -337 477 -74 26 -89 27 -308 31 -126 2
-233 0 -237 -4z m428 -221 c70 -24 147 -103 168 -173 35 -118 12 -252 -55
-325 -56 -61 -116 -86 -216 -93 l-83 -5 0 307 0 306 68 0 c38 0 91 -8 118 -17z"/>
<path d="M1155 500 c-116 -35 -129 -203 -21 -254 95 -45 196 16 196 119 0 79
-39 128 -111 139 -19 3 -48 1 -64 -4z"/>
</g>
</svg>
