<svg xmlns="http://www.w3.org/2000/svg" style="border: 0 !important; clip: rect(0 0 0 0) !important; height: 1px !important; margin: -1px !important; overflow: hidden !important; padding: 0 !important; position: absolute !important; width: 1px !important;" class="root-svg-symbols-element">
    <symbol id="arr" viewBox="0 0 12 8">
      <title>Chevron</title><path d="M10.71 5.29l-4-4C6.32.9 5.68.9 5.29 1.29l-4 4c-.39.39-.39 1.03 0 1.42.39.39 1.03.39 1.42 0l4-4H5.29l4 4c.39.39 1.03.39 1.42 0 .39-.39.39-1.03 0-1.42z" fill="#fff"/>
    </symbol>
    <symbol id="burger" viewBox="0 0 24 24">
      <path d="M0 0h24v24H0z" fill="none"/><path d="M3 18h18v-2H3v2zm0-5h18v-2H3v2zm0-7v2h18V6H3z"/>
    </symbol>
    <symbol id="cross" viewBox="0 0 9.414213562373106 9.414213562373106">
      <title>Line</title><path d="M8.397 1.017l-7.08 7.08m7.08 0l-7.08-7.08" fill="none" stroke-dasharray="0" stroke-linecap="square" stroke="#fff" stroke-miterlimit="50"/>
    </symbol>
    <symbol id="fb" viewBox="0 0 9 16">
      <title>Page 1</title><path d="M6 6h3v3H6v7H3V9H0V6h3V4.75c0-1.19.37-2.7 1.12-3.52C4.86.41 5.79 0 6.9 0H9v3H6.9c-.5 0-.9.4-.9.9z"/>
    </symbol>
    <symbol id="graph-1-main" viewBox="0 0 118 99">
      <title>Fill 1</title><path d="M44.58 9.79c0-2.09-1.7-3.79-3.79-3.79S37 7.7 37 9.79c0 2.1 1.7 3.79 3.79 3.79s3.79-1.69 3.79-3.79z" fill="#86bc25"/><path d="M1 98h112.9" fill="none" stroke-dasharray="0" stroke-linecap="round" stroke="#737373" stroke-miterlimit="50" stroke-width="2"/><path d="M1 90.66h12.41V51H1z" fill="#b8b8b8"/><path d="M101 90.24h12.41V30H101zM34 91h12.41V30H34z" fill="#86bc25"/><path d="M49.58 9.8c0-4.86-3.94-8.8-8.79-8.8C35.93 1 32 4.94 32 9.8c0 4.86 3.93 8.79 8.79 8.79a8.79 8.79 0 0 0 8.79-8.79z" fill="none" stroke-dasharray="0" stroke="#737373" stroke-miterlimit="50" stroke-width="2"/><path d="M111.58 10.79c0-2.09-1.7-3.79-3.79-3.79S104 8.7 104 10.79c0 2.1 1.7 3.79 3.79 3.79s3.79-1.69 3.79-3.79" fill="#86bc25"/><path d="M116.58 10.8c0-4.86-3.94-8.8-8.79-8.8C102.93 2 99 5.94 99 10.8c0 4.86 3.93 8.79 8.79 8.79a8.79 8.79 0 0 0 8.79-8.79z" fill="none" stroke-dasharray="0" stroke="#737373" stroke-miterlimit="50" stroke-width="2"/><path d="M68 90.92h12.41V49H68z" fill="#b8b8b8"/><path d="M79.57 28.29c0-2.92-2.37-5.29-5.29-5.29-2.91 0-5.28 2.37-5.28 5.29s2.37 5.28 5.28 5.28c2.92 0 5.29-2.36 5.29-5.28zm-67 3c0-2.92-2.37-5.29-5.29-5.29S2 28.37 2 31.29s2.36 5.29 5.28 5.29c2.92 0 5.29-2.37 5.29-5.29zM11 27.36L32.99 14M49 13l20.11 12.63m9.89.38L99.93 14" fill="none" stroke-dasharray="0" stroke="#737373" stroke-miterlimit="50" stroke-width="2"/>
    </symbol>
    <symbol id="graph-1" viewBox="0 0 71 59">
      <title>Fill 1</title><path d="M26.22 5.11a2.11 2.11 0 1 0-2.11 2.11c1.16 0 2.11-.95 2.11-2.11z" fill="#86bc25"/><path d="M1 58h67.47" fill="none" stroke-dasharray="0" stroke-linecap="round" stroke="#737373" stroke-miterlimit="50" stroke-width="2"/><path d="M1 53.61h7.59V30H1z" fill="#b8b8b8"/><path d="M61 55.27h7.59V19H61zm-41-1h7.59V18H20z" fill="#86bc25"/><path d="M29.96 6.06c0-2.79-2.45-5.06-5.48-5.06C21.45 1 19 3.27 19 6.06c0 2.8 2.45 5.06 5.48 5.06 3.03 0 5.48-2.26 5.48-5.06z" fill="none" stroke-dasharray="0" stroke="#737373" stroke-miterlimit="50" stroke-width="2"/><path d="M66.22 6.11a2.11 2.11 0 1 0-2.11 2.11c1.16 0 2.11-.95 2.11-2.11" fill="#86bc25"/><path d="M69.96 6.06c0-2.79-2.45-5.06-5.48-5.06C61.45 1 59 3.27 59 6.06c0 2.8 2.45 5.06 5.48 5.06 3.03 0 5.48-2.26 5.48-5.06z" fill="none" stroke-dasharray="0" stroke="#737373" stroke-miterlimit="50" stroke-width="2"/><path d="M40 54.3h7.59V29H40z" fill="#b8b8b8"/><path d="M47.75 16.95c0-1.63-1.51-2.95-3.38-2.95-1.86 0-3.37 1.32-3.37 2.95 0 1.63 1.51 2.95 3.37 2.95 1.87 0 3.38-1.32 3.38-2.95z" fill="none" stroke-dasharray="0" stroke="#737373" stroke-miterlimit="50" stroke-width="2"/><path d="M7.75 17.95c0-1.63-1.51-2.95-3.38-2.95C2.51 15 1 16.32 1 17.95c0 1.63 1.51 2.95 3.37 2.95 1.87 0 3.38-1.32 3.38-2.95" fill="#fff"/><path d="M7.75 17.95c0-1.63-1.51-2.95-3.38-2.95C2.51 15 1 16.32 1 17.95c0 1.63 1.51 2.95 3.37 2.95 1.87 0 3.38-1.32 3.38-2.95zM7 15.59L20.49 8M30 8l11.81 7.59m5.19-.84L59.65 8" fill="none" stroke-dasharray="0" stroke="#737373" stroke-miterlimit="50" stroke-width="2"/>
    </symbol>
    <symbol id="graph-10" viewBox="0 0 73 58">
      <title>Stroke 1</title><path d="M68.99 45.09H3.01c-1.11 0-2.01-.9-2.01-2.01V3.01C1 1.9 1.9 1 3.01 1h65.98C70.1 1 71 1.9 71 3.01v40.07c0 1.11-.9 2.01-2.01 2.01z" stroke-dasharray="0" stroke-linejoin="round" stroke-linecap="round" stroke="#737373" stroke-miterlimit="50" stroke-width="2" fill="none"/><path d="M50.18 19.5h-4.86c-.73 0-1.32-.59-1.32-1.32v-4.86c0-.73.59-1.32 1.32-1.32h4.86c.73 0 1.32.59 1.32 1.32v4.86c0 .73-.59 1.32-1.32 1.32m11 0h-4.86c-.73 0-1.32-.59-1.32-1.32v-4.86c0-.73.59-1.32 1.32-1.32h4.86c.73 0 1.32.59 1.32 1.32v4.86c0 .73-.59 1.32-1.32 1.32m-11 10h-4.86c-.73 0-1.32-.59-1.32-1.32v-4.86c0-.73.59-1.32 1.32-1.32h4.86c.73 0 1.32.59 1.32 1.32v4.86c0 .73-.59 1.32-1.32 1.32m11 0h-4.86c-.73 0-1.32-.59-1.32-1.32v-4.86c0-.73.59-1.32 1.32-1.32h4.86c.73 0 1.32.59 1.32 1.32v4.86c0 .73-.59 1.32-1.32 1.32" fill="#86bc25"/><path d="M2 40h69.25m-8.1 16.36l-.01-.02A33.978 33.978 0 0 0 49.4 45H23.75a33.913 33.913 0 0 0-13.74 11.34l-.01.02h4.71c3.47-4.76 9-7.58 14.89-7.58h13.95c5.89 0 11.42 2.82 14.89 7.58zM30.81 15.95a7.6 7.6 0 0 0-7.1-4.95c-3.36 0-6.35 2.25-7.27 5.47l-.05.17-.16-.04c-.24-.06-.49-.09-.76-.09-1.68 0-3.04 1.31-3.1 2.99l-.01.12-.11.04A5.149 5.149 0 0 0 9 24.42c0 2.81 2.29 5.1 5.1 5.1h16.89" stroke-dasharray="0" stroke-linejoin="round" stroke-linecap="round" stroke="#737373" stroke-miterlimit="50" stroke-width="2" fill="none"/><path d="M16.17 28.6s-2.91.27-3.88-1.89c-.53-1.17-.32-2.56.52-3.53.43-.5 1.07-.96 2.02-1.13 0 0-.6-1.39.62-2.18 0 0 1.03-.87 2.51-.44 0 0 .27-4.61 4.98-5.43 0 0-4.83 2.21-3.65 6.83 0 0-1.73-.56-2.54.74 0 0-.58 1.02.08 1.69 0 0-1.33-.25-2.26 1.02-.37.52-.5 1.17-.43 1.8.1.85.51 2.11 2.03 2.52" fill="#86bc25"/><path d="M31.19 25H24m10 7.26l4.13-4.13L34 24" stroke-dasharray="0" stroke-linecap="round" stroke="#737373" stroke-miterlimit="50" stroke-width="2" fill="none"/>
    </symbol>
    <symbol id="graph-11" viewBox="0 0 74 74.0991249360851">
      <title>Fill 1</title><path d="M19 56.939s3.6-6.82 16.33-6.82c0 0 11.25-.79 16.32 6.82 0 0-6.2 6.92-16.32 6.61 0 0-10.05.36-16.33-6.61m0-34.22s3.64 6.82 16.32 6.82c0 0 12.48.37 16.33-6.82 0 0-6.41-6.84-16.33-6.61 0 0-9.7-.5-16.32 6.61" fill="#86bc25"/><path d="M11.58 40.099h46.36M35 17.899v21.75m-24 0c0-12.99 10.51-23.55 23.48-23.55 12.96 0 23.47 10.59 23.47 23.59m-23.37-23.59S22 21.129 22 39.619m13-23.52s12.58 5.03 12.58 23.52m-12.26-9.71c-12.96 0-16.32-6.81-16.32-6.81m32.32 0s-3.36 6.81-16.32 6.81m0 33.47v-23.28m22.95 0c0 12.99-10.51 23.52-23.47 23.52-12.97 0-23.48-10.53-23.48-23.52m24 23.52s12.58-5.03 12.58-23.52m-13 23.52S22 58.589 22 40.099m29.32 16.81s-3.36-6.81-16.32-6.81m-16 6.81s3.36-6.81 16.32-6.81" stroke-dasharray="0" stroke-linejoin="round" stroke-linecap="round" stroke="#737373" stroke-miterlimit="50" stroke-width="2" fill="none"/><path d="M29.82 3.099c-2.27 5.11-7.62 5.32-13.74 9.26-4.78 3.08-8.48 7.73-10.92 12.87-3.91 8.24-4.21 18.13-.8 26.59" stroke-dasharray="0" stroke-linecap="round" stroke="#737373" stroke-miterlimit="50" stroke-width="2" fill="none"/><path d="M26 2.369l5.54-1.27 1.27 5.55M6 62.359c5.55-.58 8.41 3.96 14.87 7.3 5.05 2.61 10.92 3.49 16.59 3.04 9.07-.73 17.77-5.41 23.37-12.6" stroke-dasharray="0" stroke-linecap="round" stroke="#737373" stroke-miterlimit="50" stroke-width="2" fill="none"/><path d="M7.87 66.149L4 61.969l4.17-3.87m61.2-4.55c-3.27-4.52-.78-9.27-1.13-16.55-.27-5.69-2.44-11.22-5.66-15.92-5.17-7.51-13.56-12.71-22.58-13.98" stroke-dasharray="0" stroke-linecap="round" stroke="#737373" stroke-miterlimit="50" stroke-width="2" fill="none"/><path d="M72.1 50.099l-1.67 5.44-5.43-1.68" stroke-dasharray="0" stroke-linecap="round" stroke="#737373" stroke-miterlimit="50" stroke-width="2" fill="none"/>
    </symbol>
    <symbol id="graph-12" viewBox="0 0 70.5 82.5">
      <title>Stroke 1</title><path d="M58.31 23.78C58.31 11.2 48.11 1 35.53 1 22.95 1 12.75 11.2 12.75 23.78c0 12.58 10.2 22.78 22.78 22.78 12.58 0 22.78-10.2 22.78-22.78z" stroke-dasharray="0" stroke="#737373" stroke-miterlimit="50" stroke-width="2" fill="none"/><path d="M52.84 24.09C52.84 14.1 44.74 6 34.75 6" stroke-dasharray="0" stroke-linecap="round" stroke="#737373" stroke-miterlimit="50" stroke-width="2" fill="none"/><path d="M31.75 47v8.28h6.64V47" stroke-dasharray="0" stroke="#737373" stroke-miterlimit="50" stroke-width="2" fill="none"/><path d="M22.75 31.86h8.04V21h-8.04z" fill="#86bc25"/><path d="M22.75 31.86h8.04V21h-8.04z" stroke-dasharray="0" stroke-linejoin="round" stroke="#737373" stroke-miterlimit="50" stroke-width="1.5" fill="none"/><path d="M30.75 32.39h8.04V16h-8.04z" fill="#86bc25"/><path d="M30.75 32.39h8.04V16h-8.04z" stroke-dasharray="0" stroke-linejoin="round" stroke="#737373" stroke-miterlimit="50" stroke-width="1.5" fill="none"/><path d="M39.75 31.86h8.04V21h-8.04z" fill="#86bc25"/><path d="M39.75 31.86h8.04V21h-8.04z" stroke-dasharray="0" stroke-linejoin="round" stroke="#737373" stroke-miterlimit="50" stroke-width="1.5" fill="none"/><path d="M9.88 63l-4.13 4.36" fill="#86bc25"/><path d="M9.88 63l-4.13 4.36" stroke-dasharray="0" stroke-linecap="round" stroke="#737373" stroke-miterlimit="50" stroke-width="1.5" fill="none"/><path d="M17.88 67.35L13.75 63" fill="#86bc25"/><path d="M17.88 67.35L13.75 63" stroke-dasharray="0" stroke-linecap="round" stroke="#737373" stroke-miterlimit="50" stroke-width="1.5" fill="none"/><path d="M26.15 63l-4.4 4.64" fill="#86bc25"/><path d="M26.15 63l-4.4 4.64" stroke-dasharray="0" stroke-linecap="round" stroke="#737373" stroke-miterlimit="50" stroke-width="1.5" fill="none"/><path d="M6.28 69.76a2.766 2.766 0 1 0-2.77 2.77 2.77 2.77 0 0 0 2.77-2.77" fill="#86bc25"/><path d="M6.28 69.76a2.766 2.766 0 1 0-2.77 2.77 2.77 2.77 0 0 0 2.77-2.77z" stroke-dasharray="0" stroke-linecap="round" stroke="#737373" stroke-miterlimit="50" stroke-width="1.5" fill="none"/><path d="M14.28 61.76a2.766 2.766 0 1 0-2.77 2.77 2.77 2.77 0 0 0 2.77-2.77" fill="#86bc25"/><path d="M14.28 61.76a2.766 2.766 0 1 0-2.77 2.77 2.77 2.77 0 0 0 2.77-2.77z" stroke-dasharray="0" stroke-linecap="round" stroke="#737373" stroke-miterlimit="50" stroke-width="1.5" fill="none"/><path d="M22.28 69.76a2.766 2.766 0 1 0-2.77 2.77 2.77 2.77 0 0 0 2.77-2.77" fill="#86bc25"/><path d="M22.28 69.76a2.766 2.766 0 1 0-2.77 2.77 2.77 2.77 0 0 0 2.77-2.77z" stroke-dasharray="0" stroke-linecap="round" stroke="#737373" stroke-miterlimit="50" stroke-width="1.5" fill="none"/><path d="M41.38 73V57.12c0-1.17-.95-2.12-2.12-2.12h-7.39c-1.17 0-2.12.95-2.12 2.12V73m0 0v6.54c0 1.17.95 2.12 2.12 2.12h7.39c1.17 0 2.12-.95 2.12-2.12V73" stroke-dasharray="0" stroke-linecap="round" stroke="#737373" stroke-miterlimit="50" stroke-width="2" fill="none"/><path d="M60.75 63l4.13 4.36" fill="#86bc25"/><path d="M60.75 63l4.13 4.36" stroke-dasharray="0" stroke-linecap="round" stroke="#737373" stroke-miterlimit="50" stroke-width="1.5" fill="none"/><path d="M52.75 67.35L56.88 63" fill="#86bc25"/><path d="M52.75 67.35L56.88 63" stroke-dasharray="0" stroke-linecap="round" stroke="#737373" stroke-miterlimit="50" stroke-width="1.5" fill="none"/><path d="M44.75 63l4.4 4.64" fill="#86bc25"/><path d="M44.75 63l4.4 4.64" stroke-dasharray="0" stroke-linecap="round" stroke="#737373" stroke-miterlimit="50" stroke-width="1.5" fill="none"/><path d="M63.75 69.76a2.766 2.766 0 0 1 5.53 0 2.77 2.77 0 0 1-2.77 2.77c-1.52 0-2.76-1.24-2.76-2.77" fill="#86bc25"/><path d="M63.75 69.76a2.766 2.766 0 0 1 5.53 0 2.77 2.77 0 0 1-2.77 2.77c-1.52 0-2.76-1.24-2.76-2.77z" stroke-dasharray="0" stroke-linecap="round" stroke="#737373" stroke-miterlimit="50" stroke-width="1.5" fill="none"/><path d="M56.75 61.76a2.766 2.766 0 0 1 5.53 0 2.77 2.77 0 0 1-2.77 2.77c-1.52 0-2.76-1.24-2.76-2.77" fill="#86bc25"/><path d="M56.75 61.76a2.766 2.766 0 0 1 5.53 0 2.77 2.77 0 0 1-2.77 2.77c-1.52 0-2.76-1.24-2.76-2.77z" stroke-dasharray="0" stroke-linecap="round" stroke="#737373" stroke-miterlimit="50" stroke-width="1.5" fill="none"/><path d="M48.75 69.76a2.766 2.766 0 0 1 5.53 0 2.77 2.77 0 0 1-2.77 2.77c-1.52 0-2.76-1.24-2.76-2.77" fill="#86bc25"/><path d="M48.75 69.76a2.766 2.766 0 0 1 5.53 0 2.77 2.77 0 0 1-2.77 2.77c-1.52 0-2.76-1.24-2.76-2.77z" stroke-dasharray="0" stroke-linecap="round" stroke="#737373" stroke-miterlimit="50" stroke-width="1.5" fill="none"/>
    </symbol>
    <symbol id="graph-2-main" viewBox="0 0 97 107">
      <title>Fill 1</title><path d="M90.04 69.14L77.92 57C59.43 75.53 38 67.75 38 67.75c7.51 5.68 16.85 9.06 26.98 9.06 9.28 0 17.91-2.83 25.06-7.67" fill="#86bc25"/><path d="M37.65 67.67a6.253 6.253 0 0 0 0-8.84c-2.44-2.44-6.39-2.44-8.82 0a6.253 6.253 0 0 0 0 8.84c2.43 2.44 6.38 2.44 8.82 0z" fill="none" stroke-dasharray="0" stroke-linecap="round" stroke="#737373" stroke-miterlimit="50" stroke-width="2"/><path d="M34.59 65.6a2.698 2.698 0 0 0 0-3.81 2.686 2.686 0 0 0-3.8 0 2.698 2.698 0 0 0 0 3.81 2.686 2.686 0 0 0 3.8 0" fill="#86bc25"/><path d="M21.65 83.67a6.271 6.271 0 0 0 0-8.84c-2.44-2.44-6.39-2.44-8.82 0a6.253 6.253 0 0 0 0 8.84c2.43 2.44 6.38 2.44 8.82 0z" fill="none" stroke-dasharray="0" stroke-linecap="round" stroke="#737373" stroke-miterlimit="50" stroke-width="2"/><path d="M18.59 81.6a2.698 2.698 0 0 0 0-3.81 2.686 2.686 0 0 0-3.8 0 2.698 2.698 0 0 0 0 3.81 2.686 2.686 0 0 0 3.8 0" fill="#86bc25"/><path d="M37.83 66.94A44.507 44.507 0 0 0 64.81 76c9.28 0 17.91-2.83 25.06-7.67L27.65 6A44.76 44.76 0 0 0 20 31.1c0 10.15 3.37 19.52 9.04 27.04" fill="none" stroke-dasharray="0" stroke-linecap="round" stroke="#737373" stroke-miterlimit="50" stroke-width="2"/><path d="M59 37.78L62.78 34m5.02-.19c1.32-1.33 1.32-3.49 0-4.81a3.398 3.398 0 0 0-4.81 0c-1.32 1.32-1.32 3.48 0 4.81a3.398 3.398 0 0 0 4.81 0zM65 19a11.78 11.78 0 0 1 8.43 3.49 11.87 11.87 0 0 1 3.51 8.45M65 10c5.33 0 10.68 2.04 14.76 6.13s6.12 9.44 6.12 14.79M65 1c7.75.01 15.52 2.98 21.44 8.91 5.91 5.92 8.87 13.71 8.88 21.47" fill="none" stroke-dasharray="0" stroke="#737373" stroke-miterlimit="50" stroke-width="2"/><path d="M6.77 95H58.2c3.19 0 5.78 2.59 5.78 5.79v5.06H1v-5.06C1 97.59 3.59 95 6.77 95zM28.3 68L21 75.32M21 84l11.24 11.26" fill="none" stroke-dasharray="0" stroke-linecap="round" stroke="#737373" stroke-miterlimit="50" stroke-width="2"/>
    </symbol>
    <symbol id="graph-2" viewBox="0 0 72 80">
      <title>Fill 1</title><path d="M66.34 50.95L57.41 42C43.79 55.65 28 49.92 28 49.92a32.808 32.808 0 0 0 19.88 6.67c6.84 0 13.19-2.08 18.46-5.64" fill="#86bc25"/><path d="M27.85 49.86a4.617 4.617 0 0 0 0-6.51c-1.8-1.8-4.71-1.8-6.5 0a4.6 4.6 0 0 0 0 6.51c1.79 1.8 4.7 1.8 6.5 0z" fill="none" stroke-dasharray="0" stroke-linecap="round" stroke="#737373" stroke-miterlimit="50" stroke-width="2"/><path d="M26.38 48.39c.77-.78.77-2.03 0-2.81-.77-.77-2.03-.77-2.8 0-.77.78-.77 2.03 0 2.81.77.77 2.03.77 2.8 0" fill="#86bc25"/><path d="M15.85 61.86a4.617 4.617 0 0 0 0-6.51c-1.8-1.8-4.71-1.8-6.5 0a4.6 4.6 0 0 0 0 6.51c1.79 1.8 4.7 1.8 6.5 0z" fill="none" stroke-dasharray="0" stroke-linecap="round" stroke="#737373" stroke-miterlimit="50" stroke-width="2"/><path d="M14.38 60.39c.77-.78.77-2.03 0-2.81-.78-.77-2.03-.77-2.8 0-.77.78-.77 2.03 0 2.81.77.77 2.02.77 2.8 0" fill="#86bc25"/><path d="M28.14 49.91a32.872 32.872 0 0 0 19.88 6.67c6.84 0 13.19-2.08 18.46-5.65L20.64 5A32.958 32.958 0 0 0 15 23.49c0 7.49 2.48 14.38 6.66 19.93" fill="none" stroke-dasharray="0" stroke-linecap="round" stroke="#737373" stroke-miterlimit="50" stroke-width="2"/><path d="M44 27.79L46.78 25m3.49.28c.98-.98.98-2.57 0-3.55-.98-.97-2.56-.97-3.54 0a2.53 2.53 0 0 0 0 3.55c.98.98 2.56.98 3.54 0zM48 15c2.24-.01 4.5.85 6.21 2.57a8.775 8.775 0 0 1 2.58 6.23M48 8c3.93 0 7.87 1.5 10.88 4.52 3 3.01 4.5 6.95 4.5 10.89M48 1c5.71.01 11.44 2.2 15.79 6.56a22.37 22.37 0 0 1 6.55 15.83" fill="none" stroke-dasharray="0" stroke="#737373" stroke-miterlimit="50" stroke-width="2"/><path d="M5.25 71h37.9c2.35 0 4.26 1.91 4.26 4.26v3.73H1v-3.73C1 72.91 2.9 71 5.25 71zm16.13-21L16 55.39M16 62l8.28 8.3" fill="none" stroke-dasharray="0" stroke-linecap="round" stroke="#737373" stroke-miterlimit="50" stroke-width="2"/>
    </symbol>
    <symbol id="graph-3-main" viewBox="0 0 120.96362793952608 102">
      <title>Rectangle 3</title><path d="M41 30h63.72l-4.35 25.25H48.01z" fill="#86bc25"/><path d="M1 1h9.16c5.09 0 9.56 3.38 10.94 8.26l17.52 61.46c1.93 6.84 8.19 11.57 15.31 11.57h55.52" fill="none" stroke-dasharray="0" stroke-linejoin="round" stroke-linecap="round" stroke="#737373" stroke-miterlimit="50" stroke-width="2"/><path d="M41.84 30.28l8.78 31.75h60.51l7.93-40.56c.46-2.32-1.32-4.47-3.69-4.47H23m35 13l3.85 23.74M74 30v23.74M103.85 30L100 53.74M88 30v23.74M42 30h61.99M46 44h55.85m2.14 50.98c0 3.31-2.68 5.98-6 5.98a5.98 5.98 0 1 1 0-11.96c3.32 0 6 2.68 6 5.98zm-39 0c0 3.31-2.68 5.98-6 5.98a5.98 5.98 0 1 1 0-11.96c3.32 0 6 2.68 6 5.98z" fill="none" stroke-dasharray="0" stroke-linejoin="round" stroke-linecap="round" stroke="#737373" stroke-miterlimit="50" stroke-width="2"/>
    </symbol>
    <symbol id="graph-3" viewBox="0 0 71.97999688473783 61">
      <title>Rectangle 3</title><path d="M25 18h37.48l-2.56 14.85h-30.8z" fill="#86bc25"/><path d="M1 1h5.39c2.99 0 5.62 1.99 6.43 4.86l10.31 36.15a9.36 9.36 0 0 0 9.01 6.81H64.8" fill="none" stroke-dasharray="0" stroke-linejoin="round" stroke-linecap="round" stroke="#737373" stroke-miterlimit="50" stroke-width="2"/><path d="M25.08 17.81l5.17 18.68h35.59l4.67-23.86c.26-1.36-.78-2.63-2.17-2.63H14m20 8l2.26 13.96M44 18v13.96M61.26 18L59 31.96M52 18v13.96M25 18h36.46M28 26h32.85m1.2 29.52a3.525 3.525 0 0 1-7.05 0 3.525 3.525 0 0 1 7.05 0zm-23 0a3.525 3.525 0 0 1-7.05 0 3.525 3.525 0 0 1 7.05 0z" fill="none" stroke-dasharray="0" stroke-linejoin="round" stroke-linecap="round" stroke="#737373" stroke-miterlimit="50" stroke-width="2"/>
    </symbol>
    <symbol id="graph-4-main" viewBox="0 0 99.12875080419235 102.33080251317278">
      <title>Fill 1</title><path d="M87.1 100.41h10.78V80.63H87.1z" fill="#86bc25"/><path d="M40.81 47.63L30.1 100.87h29.27l-10.7-53.24" fill="none" stroke-dasharray="0" stroke="#737373" stroke-miterlimit="50" stroke-width="2"/><path d="M40.1 40.36l7.86-1.73v9.22H40.1z" fill="none" stroke-dasharray="0" stroke="#737373" stroke-miterlimit="50" stroke-width="2"/><path d="M6.29 48.27l73.64-17.1-1.75-7.54-73.64 17.1a3.14 3.14 0 0 0-2.36 3.77l.33 1.43c.4 1.68 2.09 2.74 3.78 2.34zM78.1 23.18l3.41-21.55c6.82 3.61 12.61 11.4 14.91 21.27 2.3 9.87.54 19.41-3.99 25.66L79.86 30.72zm10.11 6.45l-8.11.81m5.64-9.81l-7.64 2.93m14 25.07v32.23m-5 19.55h10.78V80.63H87.1zm-77-52.78v53.24" fill="none" stroke-dasharray="0" stroke="#737373" stroke-miterlimit="50" stroke-width="2"/><path d="M59.44 100.67L35.1 76.16l16.14-16.53" fill="none" stroke-dasharray="0" stroke-linejoin="round" stroke="#737373" stroke-miterlimit="50" stroke-width="2"/><path d="M30.1 100.67l24.36-24.51-16.12-16.53" fill="none" stroke-dasharray="0" stroke-linejoin="round" stroke="#737373" stroke-miterlimit="50" stroke-width="2"/><path d="M87.11 24.92c-1.33-5.7-3.83-10.7-7.01-14.61l1.37-8.68c6.83 3.61 12.62 11.4 14.92 21.27 2.29 9.87.54 19.41-4 25.66l-5.15-7.31c1.16-4.94 1.21-10.57-.13-16.33" fill="#86bc25"/><path d="M87.11 24.92c-1.33-5.7-3.83-10.7-7.01-14.61l1.37-8.68c6.83 3.61 12.62 11.4 14.92 21.27 2.29 9.87.54 19.41-4 25.66l-5.15-7.31c1.16-4.94 1.21-10.57-.13-16.33z" fill="none" stroke-dasharray="0" stroke="#737373" stroke-miterlimit="50" stroke-width="2"/>
    </symbol>
    <symbol id="graph-4" viewBox="0 0 69.49019073597537 73.84312539425287">
      <title>Fill 1</title><path d="M60.77 72.333h7.7v-14.19h-7.7z" fill="#86bc25"/><path d="M27.42 34.143l-7.65 38.19h20.91l-7.65-38.19" fill="none" stroke-dasharray="0" stroke="#737373" stroke-miterlimit="50" stroke-width="1.4"/><path d="M27.77 29.383l5.62-1.24v6.61h-5.62zm-24.01 5.44l52.61-12.27-1.26-5.41-52.6 12.27a2.248 2.248 0 0 0-1.68 2.7l.24 1.02a2.237 2.237 0 0 0 2.69 1.69z" fill="none" stroke-dasharray="0" stroke="#737373" stroke-miterlimit="50" stroke-width="1.4"/><path d="M54.77 16.603l2.43-15.46c4.88 2.59 9.01 8.18 10.66 15.26 1.64 7.08.38 13.92-2.86 18.41l-8.98-12.8zm6.79 5.54l-5.79.59m4.46-7.59l-5.46 2.1m9.84 19.16v21.65m-3.84 14.28h7.7v-14.19h-7.7zM5.61 35.283v37.42" fill="none" stroke-dasharray="0" stroke="#737373" stroke-miterlimit="50" stroke-width="1.4"/><path d="M41.15 72.583l-17.38-17.59 11.53-11.85" fill="none" stroke-dasharray="0" stroke-linejoin="round" stroke="#737373" stroke-miterlimit="50" stroke-width="1.4"/><path d="M19.77 72.583l17.4-17.59-11.52-11.85" fill="none" stroke-dasharray="0" stroke-linejoin="round" stroke="#737373" stroke-miterlimit="50" stroke-width="1.4"/><path d="M60.78 17.853c-.95-4.09-2.74-7.68-5.01-10.48l.98-6.23c4.88 2.59 9.01 8.18 10.65 15.26 1.64 7.08.39 13.92-2.85 18.41l-3.68-5.25c.83-3.54.86-7.58-.09-11.71" fill="#86bc25"/><path d="M60.78 17.853c-.95-4.09-2.74-7.68-5.01-10.48l.98-6.23c4.88 2.59 9.01 8.18 10.65 15.26 1.64 7.08.39 13.92-2.85 18.41l-3.68-5.25c.83-3.54.86-7.58-.09-11.71z" fill="none" stroke-dasharray="0" stroke="#737373" stroke-miterlimit="50" stroke-width="1.4"/>
    </symbol>
    <symbol id="graph-5" viewBox="0 0 69.81519017397034 55.5">
      <title>Page 1</title><path d="M37.99 40.59H41c2.88 0 5.69-.86 8.08-2.48l2.2-1.49c.36-.25.49-.75.25-1.11-.36-.53-.8-.91-1.27-1.18-1.07-.63-2.39-.57-3.52-.03-4.08 2-7.72.31-7.72.31-1.32-.82-2.58-1.47-3.78-1.96-5.04-2.07-10.8-1.29-15.24 1.87" stroke-dasharray="0" stroke="#737373" stroke-miterlimit="50" stroke-width="2" fill="none"/><path d="M19 46.23s7.26-1.41 19.94-.69c3.35.19 6.69-.56 9.66-2.13l19.29-10.2a.77.77 0 0 0 .24-1.15c-.69-.89-2.26-2.12-5.41-1.28-.35.09-.7.22-1.04.37l-9.71 4.15" stroke-dasharray="0" stroke="#737373" stroke-miterlimit="50" stroke-width="2" fill="none"/><path d="M12 50.96h7.14V32.5H12" stroke-dasharray="0" stroke="#737373" stroke-miterlimit="50" stroke-width="2" fill="none"/><path d="M0 55.26h12.39V26.5H0zm23-33.88h38.35V18.5H23zm8.85-14.45a2.424 2.424 0 1 1-4.85 0 2.424 2.424 0 1 1 4.85 0m2.19-2.43c-.37 0-.72.09-1.04.24.48.6.77 1.36.77 2.19 0 .83-.29 1.59-.77 2.19.32.15.67.24 1.04.24 1.34 0 2.42-1.09 2.42-2.43S35.38 4.5 34.04 4.5" fill="#86bc25"/><path d="M27 15.5h4.41m4.59 0h4.41m3.59 0h4.41m3.59 0h4.41" stroke-dasharray="0" stroke="#737373" stroke-miterlimit="50" stroke-width="2" fill="none"/><path d="M55.32 9.36h-4.11c-.67 0-1.21-.54-1.21-1.21V5.71c0-.67.54-1.21 1.21-1.21h4.11c.67 0 1.21.54 1.21 1.21v2.44c0 .67-.54 1.21-1.21 1.21" fill="#86bc25"/><path d="M58.48.5h-32.6A2.88 2.88 0 0 0 23 3.38v18.24a2.88 2.88 0 0 0 2.88 2.88h32.6c1.59 0 2.87-1.29 2.87-2.88V3.38c0-1.59-1.28-2.88-2.87-2.88z" stroke-dasharray="0" stroke="#737373" stroke-miterlimit="50" stroke-width="2" fill="none"/>
    </symbol>
    <symbol id="graph-6" viewBox="0 0 65 78.1580812565818">
      <title>Fill 1</title><path d="M32 6.013v13.04c5.85 0 10.59 4.74 10.59 10.59v2.5h3.02v19.24H32v24.66s31.28-.98 31.28-62.79z" fill="#86bc25"/><path d="M32 6.013v13.04c5.85 0 10.59 4.74 10.59 10.59v2.5h3.02v19.24H32v24.66s31.28-.98 31.28-62.79z" stroke-dasharray="0" stroke="#737373" stroke-miterlimit="50" stroke-width="2" fill="none"/><path d="M32.28 6.013L1 13.253c0 61.81 31.28 62.79 31.28 62.79s31.27-.98 31.27-62.79z" stroke-dasharray="0" stroke-linecap="round" stroke="#737373" stroke-miterlimit="50" stroke-width="2" fill="none"/><path d="M18 51.253h27.22v-19.24H18z" stroke-dasharray="0" stroke="#737373" stroke-miterlimit="50" stroke-width="2" fill="none"/><path d="M31.59 19.013c-5.85 0-10.59 4.74-10.59 10.59v2.5h21.18v-2.5c0-5.85-4.74-10.59-10.59-10.59zm3.73 21.16a3.16 3.16 0 0 0-3.16-3.16c-1.74 0-3.16 1.42-3.16 3.16 0 1.11.57 2.08 1.44 2.65v4.63h3.45v-4.63c.86-.57 1.43-1.54 1.43-2.65z" stroke-dasharray="0" stroke="#737373" stroke-miterlimit="50" stroke-width="2" fill="none"/><path d="M52.9 5.863l-20.95-4.85L11 5.863" stroke-dasharray="0" stroke-linecap="round" stroke="#737373" stroke-miterlimit="50" stroke-width="2" fill="none"/>
    </symbol>
    <symbol id="graph-7" viewBox="0 0 71.53615398277248 63.99375653290781">
      <title>Stroke 1</title><path d="M4.036 25.314l9.41-10.82 12.48 19.45 14.23-11.63 9.18 10.62 8.27-6.76 6.45 8.86" stroke-dasharray="0" stroke="#737373" stroke-miterlimit="50" stroke-width="2" fill="none"/><path d="M67.496 38.864l-6.46-3.99 3.3-.34 1.35-3.04z" fill="#737373"/><path d="M67.496 38.864l-6.46-3.99 3.3-.34 1.35-3.04z" stroke-dasharray="0" stroke="#737373" stroke-miterlimit="50" stroke-width="2" fill="none"/><path d="M4.036 29.884v32.59h66.79l-.08-14.43-7.25 6.7-5.03-5.04-4.01 4.01v-16.26l-9.91 9.91v-6.13l-5.22-6.74-9.92 8.63-3.25-4.01-10.52 8.25v-20.21l-4.39 3.41-3.17-5.07z" fill="#86bc25"/><path d="M70.826 62.644H4.036V7.494" stroke-dasharray="0" stroke="#737373" stroke-miterlimit="50" stroke-width="2" fill="none"/><path d="M4.906 2.494l2.87 7.03-2.87-1.67-2.87 1.67z" fill="#737373"/><path d="M4.906 2.494l2.87 7.03-2.87-1.67-2.87 1.67z" stroke-dasharray="0" stroke="#737373" stroke-miterlimit="50" stroke-width="2" fill="none"/>
    </symbol>
    <symbol id="graph-8" viewBox="0 0 72.85129732877795 71.91955041732558">
      <title>Fill 1</title><path d="M30.839 69.9l-1.13-12.78-8.16-5.12-.79 9.37-2.26-1.54-1.42 2.73 1.95 7.34z" fill="#86bc25"/><path d="M30.839 69.9l-1.13-12.78-8.16-5.12-.79 9.37-2.26-1.54-1.42 2.73 1.95 7.34z" stroke-dasharray="0" stroke="#737373" stroke-miterlimit="50" stroke-width="2" fill="none"/><path d="M1.079 69.9l1.13-12.78 8.16-5.12.79 9.37 2.26-1.54 1.42 2.73-1.96 7.34z" fill="#86bc25"/><path d="M1.079 69.9l1.13-12.78 8.16-5.12.79 9.37 2.26-1.54 1.42 2.73-1.96 7.34z" stroke-dasharray="0" stroke="#737373" stroke-miterlimit="50" stroke-width="2" fill="none"/><path d="M1.079 70.07c0-.76 1.13-12.78 1.13-12.78l8.16-5.29" stroke-dasharray="0" stroke-linejoin="round" stroke="#737373" stroke-miterlimit="50" stroke-width="2" fill="none"/><path d="M10.079 52l.82 9.93 4.77-4.13zm4.95 10l-1.95 7.53" stroke-dasharray="0" stroke-linejoin="round" stroke-linecap="round" stroke="#737373" stroke-miterlimit="50" stroke-width="2" fill="none"/><path d="M31.369 70.07c0-.76-1.13-12.78-1.13-12.78L22.079 52" stroke-dasharray="0" stroke-linejoin="round" stroke="#737373" stroke-miterlimit="50" stroke-width="2" fill="none"/><path d="M21.669 52l-.82 9.93-4.77-4.13z" stroke-dasharray="0" stroke-linejoin="round" stroke-linecap="round" stroke="#737373" stroke-miterlimit="50" stroke-width="2" fill="none"/><path d="M15.619 57l-2.54 2.2 1.42 2.53h2.25l1.42-2.53zm1.46 5l1.95 7.53m3.05-4.53h4.36m-4.49-21.77c0-3.99-2.65-7.23-5.93-7.23s-5.94 3.24-5.94 7.23 2.66 7.23 5.94 7.23c3.28 0 5.93-3.24 5.93-7.23z" stroke-dasharray="0" stroke-linejoin="round" stroke-linecap="round" stroke="#737373" stroke-miterlimit="50" stroke-width="2" fill="none"/><path d="M70.839 33.9l-1.13-12.78-8.16-5.12-.79 9.37-2.26-1.54-1.42 2.73 1.95 7.34z" fill="#86bc25"/><path d="M70.839 33.9l-1.13-12.78-8.16-5.12-.79 9.37-2.26-1.54-1.42 2.73 1.95 7.34z" stroke-dasharray="0" stroke="#737373" stroke-miterlimit="50" stroke-width="2" fill="none"/><path d="M41.079 33.9l1.13-12.78 8.16-5.12.79 9.37 2.26-1.54 1.42 2.73-1.96 7.34z" fill="#86bc25"/><path d="M41.079 33.9l1.13-12.78 8.16-5.12.79 9.37 2.26-1.54 1.42 2.73-1.96 7.34z" stroke-dasharray="0" stroke="#737373" stroke-miterlimit="50" stroke-width="2" fill="none"/><path d="M41.079 34.07c0-.76 1.13-12.78 1.13-12.78l8.16-5.29" stroke-dasharray="0" stroke-linejoin="round" stroke="#737373" stroke-miterlimit="50" stroke-width="2" fill="none"/><path d="M50.079 16l.82 9.93 4.77-4.13zm4.95 11l-1.95 7.53" stroke-dasharray="0" stroke-linejoin="round" stroke-linecap="round" stroke="#737373" stroke-miterlimit="50" stroke-width="2" fill="none"/><path d="M71.369 34.07c0-.76-1.13-12.78-1.13-12.78L62.079 16" stroke-dasharray="0" stroke-linejoin="round" stroke="#737373" stroke-miterlimit="50" stroke-width="2" fill="none"/><path d="M61.669 16l-.82 9.93-4.77-4.13zm-6.04 6l-2.55 2.2 1.42 2.53h2.25l1.42-2.53zm1.45 5l1.95 7.53m3.05-5.53h4.36m-4.49-20.77c0-3.99-2.66-7.23-5.93-7.23-3.28 0-5.94 3.24-5.94 7.23s2.66 7.23 5.94 7.23c3.27 0 5.93-3.24 5.93-7.23z" stroke-dasharray="0" stroke-linejoin="round" stroke-linecap="round" stroke="#737373" stroke-miterlimit="50" stroke-width="2" fill="none"/><path d="M47.079 61.13c4.45-1.28 13.84-5.31 17.66-17.13m-50.66-14.48c1.29-4.42 5.35-13.73 17.27-17.52" stroke-dasharray="0" stroke="#737373" stroke-miterlimit="50" stroke-width="2" fill="none"/>
    </symbol>
    <symbol id="graph-9" viewBox="0 0 71 91">
      <title>Fill 1</title><path d="M20.86 17.54c0-2.17-3.93-7.54-3.93-7.54S13 15.37 13 17.54c0 2.16 1.76 3.92 3.93 3.92s3.93-1.76 3.93-3.92z" fill="#86bc25"/><path d="M8 26.28h18.31V8H8zM7 32h42.26M7 39h42.26M7 46h42.26M32 8h17.13M32 14h17.13M7 53h42.26" stroke-dasharray="0" stroke="#737373" stroke-miterlimit="50" stroke-width="2" fill="none"/><path d="M54.18 58.76V1H1v73h37.93c0-8.42 6.83-15.24 15.25-15.24zM21.13 67H7" stroke-dasharray="0" stroke="#737373" stroke-miterlimit="50" stroke-width="2" fill="none"/><path d="M48.5 70.23c0-1.42.4-2.13 1.21-2.13.81 0 1.22.71 1.22 2.13 0 1.43-.41 2.14-1.22 2.14s-1.21-.71-1.21-2.14zm3.87-3.11c-.33-.36-.72-.63-1.18-.83-.46-.19-.95-.29-1.48-.29-.54 0-1.04.1-1.49.29-.46.19-.85.46-1.18.83-.32.37-.58.81-.76 1.33-.19.53-.28 1.12-.28 1.78 0 .66.09 1.25.27 1.77.18.53.43.97.76 1.34.32.36.71.64 1.17.84.45.19.95.29 1.51.29.54 0 1.04-.1 1.5-.29.46-.2.85-.48 1.18-.85.33-.37.58-.81.77-1.33.18-.52.27-1.11.27-1.77 0-.66-.09-1.25-.28-1.78-.18-.52-.45-.96-.78-1.33zm7.41-.12l-8.29 15.17H49L57.3 67zM58.5 78.23c0-1.41.4-2.12 1.21-2.12.81 0 1.22.71 1.22 2.12 0 1.44-.41 2.16-1.22 2.16s-1.21-.72-1.21-2.16zm3.88-3.08c-.33-.37-.72-.66-1.18-.85-.45-.2-.95-.3-1.49-.3-.55 0-1.05.1-1.5.29-.46.2-.85.48-1.17.84-.33.37-.59.81-.77 1.33-.18.52-.27 1.11-.27 1.77 0 .67.09 1.27.27 1.79.18.53.44.97.76 1.34.32.36.71.64 1.17.84.45.19.95.29 1.51.29.54 0 1.04-.1 1.49-.3.46-.2.85-.48 1.18-.85.33-.36.58-.81.77-1.34.18-.52.27-1.11.27-1.77 0-.64-.09-1.23-.27-1.75-.19-.52-.44-.97-.77-1.33z" fill="#86bc25"/><path d="M69.51 74.24c0-8.42-6.83-15.24-15.26-15.24C45.83 59 39 65.82 39 74.24c0 8.41 6.83 15.23 15.25 15.23 8.43 0 15.26-6.82 15.26-15.23z" stroke-dasharray="0" stroke="#737373" stroke-miterlimit="50" stroke-width="2" fill="none"/><path d="M7 63.74h14.13V59H7z" fill="#86bc25"/>
    </symbol>
    <symbol id="scheme" viewBox="0 0 139.5647825815413 100.5647825815413">
      <title>Line</title><path d="M.565 99.73s5.35-54.26 57.05-37.59c51.71 16.67 62.45-41.14 62.45-41.14" fill="none" stroke-dasharray="0" stroke-linecap="square" stroke="#fff" stroke-miterlimit="50"/><path d="M99.565 20c0-11.046 8.954-20 20-20 11.045 0 20 8.954 20 20s-8.955 20-20 20c-11.046 0-20-8.954-20-20z" fill="#fff"/><path d="M107.565 20c0-6.627 5.372-12 12-12 6.627 0 12 5.373 12 12s-5.373 12-12 12c-6.628 0-12-5.373-12-12z" fill="none" stroke-dasharray="0" stroke="#86bc25" stroke-miterlimit="50"/>
    </symbol>
    <symbol id="tw" viewBox="0 0 19 16">
      <title>Page 1</title><path d="M18.99 1.83c-.7.31-1.45.52-2.24.61.81-.48 1.42-1.25 1.72-2.16-.76.45-1.59.78-2.48.95A3.871 3.871 0 0 0 13.15 0c-2.16 0-3.9 1.74-3.9 3.9 0 .3.04.6.1.88C6.11 4.62 3.24 3.07 1.32.71.99 1.29.79 1.96.79 2.67c0 1.35.69 2.55 1.74 3.25-.64-.03-1.24-.2-1.77-.49v.05c0 1.88 1.34 3.46 3.13 3.82-.33.09-.67.13-1.03.13-.25 0-.49-.02-.73-.07a3.89 3.89 0 0 0 3.64 2.71 7.879 7.879 0 0 1-4.84 1.67c-.32 0-.63-.02-.93-.06a10.97 10.97 0 0 0 5.97 1.75c7.17 0 11.09-5.93 11.09-11.08 0-.17-.01-.34-.01-.51.76-.55 1.42-1.23 1.94-2.01"/>
    </symbol>	
    <symbol id="vk" viewBox="0 0 24 24">
      <title/><path d="M21.547 7h-3.29a.743.743 0 0 0-.655.392s-1.312 2.416-1.734 3.23C14.734 12.813 14 12.126 14 11.11V7.604A1.104 1.104 0 0 0 12.896 6.5h-2.474a1.982 1.982 0 0 0-1.751.813s1.256-.204 1.256 1.49c0 .419.022 1.626.041 2.64a.73.73 0 0 1-1.273.503 21.54 21.54 0 0 1-2.498-4.543.693.693 0 0 0-.63-.403h-2.99a.508.508 0 0 0-.48.685C3.005 10.175 6.916 18 11.38 18h1.879a.742.742 0 0 0 .742-.742v-1.135a.73.73 0 0 1 1.229-.531l2.248 2.113a1.09 1.09 0 0 0 .746.295h2.953c1.424 0 1.424-.988.647-1.753-.546-.538-2.518-2.617-2.518-2.617a1.019 1.019 0 0 1-.078-1.323c.637-.839 1.68-2.212 2.122-2.8.604-.804 1.698-2.507.198-2.507z"/>
    </symbol>
    <symbol id="left-chevron" viewBox="0 0 455 455">
      <title>left-chevron</title><path d="M227.5,0C101.855,0,0,101.855,0,227.5S101.855,455,227.5,455S455,353.145,455,227.5S353.145,0,227.5,0z M276.772,334.411
	l-21.248,21.178L127.852,227.5L255.524,99.411l21.248,21.178L170.209,227.5L276.772,334.411z" fill="#161923"/>
    </symbol>	
    <symbol id="right-chevron" viewBox="0 0 455 455">
      <title>right-chevron</title><path d="M227.5,0C101.855,0,0,101.855,0,227.5S101.855,455,227.5,455S455,353.145,455,227.5S353.145,0,227.5,0z M199.476,355.589
	l-21.248-21.178L284.791,227.5L178.228,120.589l21.248-21.178L327.148,227.5L199.476,355.589z" fill="#161923"/>
    </symbol></svg>