<svg xmlns="http://www.w3.org/2000/svg" width="65" height="78.158" viewBox="0 0 65 78.1580812565818"><title>Fill 1</title><path d="M32 6.013v13.04c5.85 0 10.59 4.74 10.59 10.59v2.5h3.02v19.24H32v24.66s31.28-.98 31.28-62.79z" fill="#86bc25"/><path d="M32 6.013v13.04c5.85 0 10.59 4.74 10.59 10.59v2.5h3.02v19.24H32v24.66s31.28-.98 31.28-62.79z" stroke-dasharray="0" stroke="#737373" stroke-miterlimit="50" stroke-width="2" fill="none"/><path d="M32.28 6.013L1 13.253c0 61.81 31.28 62.79 31.28 62.79s31.27-.98 31.27-62.79z" stroke-dasharray="0" stroke-linecap="round" stroke="#737373" stroke-miterlimit="50" stroke-width="2" fill="none"/><path d="M18 51.253h27.22v-19.24H18z" stroke-dasharray="0" stroke="#737373" stroke-miterlimit="50" stroke-width="2" fill="none"/><path d="M31.59 19.013c-5.85 0-10.59 4.74-10.59 10.59v2.5h21.18v-2.5c0-5.85-4.74-10.59-10.59-10.59zm3.73 21.16a3.16 3.16 0 0 0-3.16-3.16c-1.74 0-3.16 1.42-3.16 3.16 0 1.11.57 2.08 1.44 2.65v4.63h3.45v-4.63c.86-.57 1.43-1.54 1.43-2.65z" stroke-dasharray="0" stroke="#737373" stroke-miterlimit="50" stroke-width="2" fill="none"/><path d="M52.9 5.863l-20.95-4.85L11 5.863" stroke-dasharray="0" stroke-linecap="round" stroke="#737373" stroke-miterlimit="50" stroke-width="2" fill="none"/></svg>