<svg xmlns="http://www.w3.org/2000/svg" width="72.851" height="71.92" viewBox="0 0 72.85129732877795 71.91955041732558"><title>Fill 1</title><path d="M30.839 69.9l-1.13-12.78-8.16-5.12-.79 9.37-2.26-1.54-1.42 2.73 1.95 7.34z" fill="#86bc25"/><path d="M30.839 69.9l-1.13-12.78-8.16-5.12-.79 9.37-2.26-1.54-1.42 2.73 1.95 7.34z" stroke-dasharray="0" stroke="#737373" stroke-miterlimit="50" stroke-width="2" fill="none"/><path d="M1.079 69.9l1.13-12.78 8.16-5.12.79 9.37 2.26-1.54 1.42 2.73-1.96 7.34z" fill="#86bc25"/><path d="M1.079 69.9l1.13-12.78 8.16-5.12.79 9.37 2.26-1.54 1.42 2.73-1.96 7.34z" stroke-dasharray="0" stroke="#737373" stroke-miterlimit="50" stroke-width="2" fill="none"/><path d="M1.079 70.07c0-.76 1.13-12.78 1.13-12.78l8.16-5.29" stroke-dasharray="0" stroke-linejoin="round" stroke="#737373" stroke-miterlimit="50" stroke-width="2" fill="none"/><path d="M10.079 52l.82 9.93 4.77-4.13zm4.95 10l-1.95 7.53" stroke-dasharray="0" stroke-linejoin="round" stroke-linecap="round" stroke="#737373" stroke-miterlimit="50" stroke-width="2" fill="none"/><path d="M31.369 70.07c0-.76-1.13-12.78-1.13-12.78L22.079 52" stroke-dasharray="0" stroke-linejoin="round" stroke="#737373" stroke-miterlimit="50" stroke-width="2" fill="none"/><path d="M21.669 52l-.82 9.93-4.77-4.13z" stroke-dasharray="0" stroke-linejoin="round" stroke-linecap="round" stroke="#737373" stroke-miterlimit="50" stroke-width="2" fill="none"/><path d="M15.619 57l-2.54 2.2 1.42 2.53h2.25l1.42-2.53zm1.46 5l1.95 7.53m3.05-4.53h4.36m-4.49-21.77c0-3.99-2.65-7.23-5.93-7.23s-5.94 3.24-5.94 7.23 2.66 7.23 5.94 7.23c3.28 0 5.93-3.24 5.93-7.23z" stroke-dasharray="0" stroke-linejoin="round" stroke-linecap="round" stroke="#737373" stroke-miterlimit="50" stroke-width="2" fill="none"/><path d="M70.839 33.9l-1.13-12.78-8.16-5.12-.79 9.37-2.26-1.54-1.42 2.73 1.95 7.34z" fill="#86bc25"/><path d="M70.839 33.9l-1.13-12.78-8.16-5.12-.79 9.37-2.26-1.54-1.42 2.73 1.95 7.34z" stroke-dasharray="0" stroke="#737373" stroke-miterlimit="50" stroke-width="2" fill="none"/><path d="M41.079 33.9l1.13-12.78 8.16-5.12.79 9.37 2.26-1.54 1.42 2.73-1.96 7.34z" fill="#86bc25"/><path d="M41.079 33.9l1.13-12.78 8.16-5.12.79 9.37 2.26-1.54 1.42 2.73-1.96 7.34z" stroke-dasharray="0" stroke="#737373" stroke-miterlimit="50" stroke-width="2" fill="none"/><path d="M41.079 34.07c0-.76 1.13-12.78 1.13-12.78l8.16-5.29" stroke-dasharray="0" stroke-linejoin="round" stroke="#737373" stroke-miterlimit="50" stroke-width="2" fill="none"/><path d="M50.079 16l.82 9.93 4.77-4.13zm4.95 11l-1.95 7.53" stroke-dasharray="0" stroke-linejoin="round" stroke-linecap="round" stroke="#737373" stroke-miterlimit="50" stroke-width="2" fill="none"/><path d="M71.369 34.07c0-.76-1.13-12.78-1.13-12.78L62.079 16" stroke-dasharray="0" stroke-linejoin="round" stroke="#737373" stroke-miterlimit="50" stroke-width="2" fill="none"/><path d="M61.669 16l-.82 9.93-4.77-4.13zm-6.04 6l-2.55 2.2 1.42 2.53h2.25l1.42-2.53zm1.45 5l1.95 7.53m3.05-5.53h4.36m-4.49-20.77c0-3.99-2.66-7.23-5.93-7.23-3.28 0-5.94 3.24-5.94 7.23s2.66 7.23 5.94 7.23c3.27 0 5.93-3.24 5.93-7.23z" stroke-dasharray="0" stroke-linejoin="round" stroke-linecap="round" stroke="#737373" stroke-miterlimit="50" stroke-width="2" fill="none"/><path d="M47.079 61.13c4.45-1.28 13.84-5.31 17.66-17.13m-50.66-14.48c1.29-4.42 5.35-13.73 17.27-17.52" stroke-dasharray="0" stroke="#737373" stroke-miterlimit="50" stroke-width="2" fill="none"/></svg>