<svg xmlns="http://www.w3.org/2000/svg" width="71.98" height="61" viewBox="0 0 71.97999688473783 61"><title>Rectangle 3</title><path d="M25 18h37.48l-2.56 14.85h-30.8z" fill="#86bc25"/><path d="M1 1h5.39c2.99 0 5.62 1.99 6.43 4.86l10.31 36.15a9.36 9.36 0 0 0 9.01 6.81H64.8" fill="none" stroke-dasharray="0" stroke-linejoin="round" stroke-linecap="round" stroke="#737373" stroke-miterlimit="50" stroke-width="2"/><path d="M25.08 17.81l5.17 18.68h35.59l4.67-23.86c.26-1.36-.78-2.63-2.17-2.63H14m20 8l2.26 13.96M44 18v13.96M61.26 18L59 31.96M52 18v13.96M25 18h36.46M28 26h32.85m1.2 29.52a3.525 3.525 0 0 1-7.05 0 3.525 3.525 0 0 1 7.05 0zm-23 0a3.525 3.525 0 0 1-7.05 0 3.525 3.525 0 0 1 7.05 0z" fill="none" stroke-dasharray="0" stroke-linejoin="round" stroke-linecap="round" stroke="#737373" stroke-miterlimit="50" stroke-width="2"/></svg>