<svg xmlns="http://www.w3.org/2000/svg" width="71" height="59" viewBox="0 0 71 59"><title>Fill 1</title><path d="M26.22 5.11a2.11 2.11 0 1 0-2.11 2.11c1.16 0 2.11-.95 2.11-2.11z" fill="#86bc25"/><path d="M1 58h67.47" fill="none" stroke-dasharray="0" stroke-linecap="round" stroke="#737373" stroke-miterlimit="50" stroke-width="2"/><path d="M1 53.61h7.59V30H1z" fill="#b8b8b8"/><path d="M61 55.27h7.59V19H61zm-41-1h7.59V18H20z" fill="#86bc25"/><path d="M29.96 6.06c0-2.79-2.45-5.06-5.48-5.06C21.45 1 19 3.27 19 6.06c0 2.8 2.45 5.06 5.48 5.06 3.03 0 5.48-2.26 5.48-5.06z" fill="none" stroke-dasharray="0" stroke="#737373" stroke-miterlimit="50" stroke-width="2"/><path d="M66.22 6.11a2.11 2.11 0 1 0-2.11 2.11c1.16 0 2.11-.95 2.11-2.11" fill="#86bc25"/><path d="M69.96 6.06c0-2.79-2.45-5.06-5.48-5.06C61.45 1 59 3.27 59 6.06c0 2.8 2.45 5.06 5.48 5.06 3.03 0 5.48-2.26 5.48-5.06z" fill="none" stroke-dasharray="0" stroke="#737373" stroke-miterlimit="50" stroke-width="2"/><path d="M40 54.3h7.59V29H40z" fill="#b8b8b8"/><path d="M47.75 16.95c0-1.63-1.51-2.95-3.38-2.95-1.86 0-3.37 1.32-3.37 2.95 0 1.63 1.51 2.95 3.37 2.95 1.87 0 3.38-1.32 3.38-2.95z" fill="none" stroke-dasharray="0" stroke="#737373" stroke-miterlimit="50" stroke-width="2"/><path d="M7.75 17.95c0-1.63-1.51-2.95-3.38-2.95C2.51 15 1 16.32 1 17.95c0 1.63 1.51 2.95 3.37 2.95 1.87 0 3.38-1.32 3.38-2.95" fill="#fff"/><path d="M7.75 17.95c0-1.63-1.51-2.95-3.38-2.95C2.51 15 1 16.32 1 17.95c0 1.63 1.51 2.95 3.37 2.95 1.87 0 3.38-1.32 3.38-2.95zM7 15.59L20.49 8M30 8l11.81 7.59m5.19-.84L59.65 8" fill="none" stroke-dasharray="0" stroke="#737373" stroke-miterlimit="50" stroke-width="2"/></svg>