<svg xmlns="http://www.w3.org/2000/svg" width="69.815" height="55.5" viewBox="0 0 69.81519017397034 55.5"><title>Page 1</title><path d="M37.99 40.59H41c2.88 0 5.69-.86 8.08-2.48l2.2-1.49c.36-.25.49-.75.25-1.11-.36-.53-.8-.91-1.27-1.18-1.07-.63-2.39-.57-3.52-.03-4.08 2-7.72.31-7.72.31-1.32-.82-2.58-1.47-3.78-1.96-5.04-2.07-10.8-1.29-15.24 1.87" stroke-dasharray="0" stroke="#737373" stroke-miterlimit="50" stroke-width="2" fill="none"/><path d="M19 46.23s7.26-1.41 19.94-.69c3.35.19 6.69-.56 9.66-2.13l19.29-10.2a.77.77 0 0 0 .24-1.15c-.69-.89-2.26-2.12-5.41-1.28-.35.09-.7.22-1.04.37l-9.71 4.15" stroke-dasharray="0" stroke="#737373" stroke-miterlimit="50" stroke-width="2" fill="none"/><path d="M12 50.96h7.14V32.5H12" stroke-dasharray="0" stroke="#737373" stroke-miterlimit="50" stroke-width="2" fill="none"/><path d="M0 55.26h12.39V26.5H0zm23-33.88h38.35V18.5H23zm8.85-14.45a2.424 2.424 0 1 1-4.85 0 2.424 2.424 0 1 1 4.85 0m2.19-2.43c-.37 0-.72.09-1.04.24.48.6.77 1.36.77 2.19 0 .83-.29 1.59-.77 2.19.32.15.67.24 1.04.24 1.34 0 2.42-1.09 2.42-2.43S35.38 4.5 34.04 4.5" fill="#86bc25"/><path d="M27 15.5h4.41m4.59 0h4.41m3.59 0h4.41m3.59 0h4.41" stroke-dasharray="0" stroke="#737373" stroke-miterlimit="50" stroke-width="2" fill="none"/><path d="M55.32 9.36h-4.11c-.67 0-1.21-.54-1.21-1.21V5.71c0-.67.54-1.21 1.21-1.21h4.11c.67 0 1.21.54 1.21 1.21v2.44c0 .67-.54 1.21-1.21 1.21" fill="#86bc25"/><path d="M58.48.5h-32.6A2.88 2.88 0 0 0 23 3.38v18.24a2.88 2.88 0 0 0 2.88 2.88h32.6c1.59 0 2.87-1.29 2.87-2.88V3.38c0-1.59-1.28-2.88-2.87-2.88z" stroke-dasharray="0" stroke="#737373" stroke-miterlimit="50" stroke-width="2" fill="none"/></svg>