<svg xmlns="http://www.w3.org/2000/svg" width="73" height="58" viewBox="0 0 73 58"><title>Stroke 1</title><path d="M68.99 45.09H3.01c-1.11 0-2.01-.9-2.01-2.01V3.01C1 1.9 1.9 1 3.01 1h65.98C70.1 1 71 1.9 71 3.01v40.07c0 1.11-.9 2.01-2.01 2.01z" stroke-dasharray="0" stroke-linejoin="round" stroke-linecap="round" stroke="#737373" stroke-miterlimit="50" stroke-width="2" fill="none"/><path d="M50.18 19.5h-4.86c-.73 0-1.32-.59-1.32-1.32v-4.86c0-.73.59-1.32 1.32-1.32h4.86c.73 0 1.32.59 1.32 1.32v4.86c0 .73-.59 1.32-1.32 1.32m11 0h-4.86c-.73 0-1.32-.59-1.32-1.32v-4.86c0-.73.59-1.32 1.32-1.32h4.86c.73 0 1.32.59 1.32 1.32v4.86c0 .73-.59 1.32-1.32 1.32m-11 10h-4.86c-.73 0-1.32-.59-1.32-1.32v-4.86c0-.73.59-1.32 1.32-1.32h4.86c.73 0 1.32.59 1.32 1.32v4.86c0 .73-.59 1.32-1.32 1.32m11 0h-4.86c-.73 0-1.32-.59-1.32-1.32v-4.86c0-.73.59-1.32 1.32-1.32h4.86c.73 0 1.32.59 1.32 1.32v4.86c0 .73-.59 1.32-1.32 1.32" fill="#86bc25"/><path d="M2 40h69.25m-8.1 16.36l-.01-.02A33.978 33.978 0 0 0 49.4 45H23.75a33.913 33.913 0 0 0-13.74 11.34l-.01.02h4.71c3.47-4.76 9-7.58 14.89-7.58h13.95c5.89 0 11.42 2.82 14.89 7.58zM30.81 15.95a7.6 7.6 0 0 0-7.1-4.95c-3.36 0-6.35 2.25-7.27 5.47l-.05.17-.16-.04c-.24-.06-.49-.09-.76-.09-1.68 0-3.04 1.31-3.1 2.99l-.01.12-.11.04A5.149 5.149 0 0 0 9 24.42c0 2.81 2.29 5.1 5.1 5.1h16.89" stroke-dasharray="0" stroke-linejoin="round" stroke-linecap="round" stroke="#737373" stroke-miterlimit="50" stroke-width="2" fill="none"/><path d="M16.17 28.6s-2.91.27-3.88-1.89c-.53-1.17-.32-2.56.52-3.53.43-.5 1.07-.96 2.02-1.13 0 0-.6-1.39.62-2.18 0 0 1.03-.87 2.51-.44 0 0 .27-4.61 4.98-5.43 0 0-4.83 2.21-3.65 6.83 0 0-1.73-.56-2.54.74 0 0-.58 1.02.08 1.69 0 0-1.33-.25-2.26 1.02-.37.52-.5 1.17-.43 1.8.1.85.51 2.11 2.03 2.52" fill="#86bc25"/><path d="M31.19 25H24m10 7.26l4.13-4.13L34 24" stroke-dasharray="0" stroke-linecap="round" stroke="#737373" stroke-miterlimit="50" stroke-width="2" fill="none"/></svg>