<svg xmlns="http://www.w3.org/2000/svg" width="99.129" height="102.331" viewBox="0 0 99.12875080419235 102.33080251317278"><title>Fill 1</title><path d="M87.1 100.41h10.78V80.63H87.1z" fill="#86bc25"/><path d="M40.81 47.63L30.1 100.87h29.27l-10.7-53.24" fill="none" stroke-dasharray="0" stroke="#737373" stroke-miterlimit="50" stroke-width="2"/><path d="M40.1 40.36l7.86-1.73v9.22H40.1z" fill="none" stroke-dasharray="0" stroke="#737373" stroke-miterlimit="50" stroke-width="2"/><path d="M6.29 48.27l73.64-17.1-1.75-7.54-73.64 17.1a3.14 3.14 0 0 0-2.36 3.77l.33 1.43c.4 1.68 2.09 2.74 3.78 2.34zM78.1 23.18l3.41-21.55c6.82 3.61 12.61 11.4 14.91 21.27 2.3 9.87.54 19.41-3.99 25.66L79.86 30.72zm10.11 6.45l-8.11.81m5.64-9.81l-7.64 2.93m14 25.07v32.23m-5 19.55h10.78V80.63H87.1zm-77-52.78v53.24" fill="none" stroke-dasharray="0" stroke="#737373" stroke-miterlimit="50" stroke-width="2"/><path d="M59.44 100.67L35.1 76.16l16.14-16.53" fill="none" stroke-dasharray="0" stroke-linejoin="round" stroke="#737373" stroke-miterlimit="50" stroke-width="2"/><path d="M30.1 100.67l24.36-24.51-16.12-16.53" fill="none" stroke-dasharray="0" stroke-linejoin="round" stroke="#737373" stroke-miterlimit="50" stroke-width="2"/><path d="M87.11 24.92c-1.33-5.7-3.83-10.7-7.01-14.61l1.37-8.68c6.83 3.61 12.62 11.4 14.92 21.27 2.29 9.87.54 19.41-4 25.66l-5.15-7.31c1.16-4.94 1.21-10.57-.13-16.33" fill="#86bc25"/><path d="M87.11 24.92c-1.33-5.7-3.83-10.7-7.01-14.61l1.37-8.68c6.83 3.61 12.62 11.4 14.92 21.27 2.29 9.87.54 19.41-4 25.66l-5.15-7.31c1.16-4.94 1.21-10.57-.13-16.33z" fill="none" stroke-dasharray="0" stroke="#737373" stroke-miterlimit="50" stroke-width="2"/></svg>