<svg xmlns="http://www.w3.org/2000/svg" width="72" height="80" viewBox="0 0 72 80"><title>Fill 1</title><path d="M66.34 50.95L57.41 42C43.79 55.65 28 49.92 28 49.92a32.808 32.808 0 0 0 19.88 6.67c6.84 0 13.19-2.08 18.46-5.64" fill="#86bc25"/><path d="M27.85 49.86a4.617 4.617 0 0 0 0-6.51c-1.8-1.8-4.71-1.8-6.5 0a4.6 4.6 0 0 0 0 6.51c1.79 1.8 4.7 1.8 6.5 0z" fill="none" stroke-dasharray="0" stroke-linecap="round" stroke="#737373" stroke-miterlimit="50" stroke-width="2"/><path d="M26.38 48.39c.77-.78.77-2.03 0-2.81-.77-.77-2.03-.77-2.8 0-.77.78-.77 2.03 0 2.81.77.77 2.03.77 2.8 0" fill="#86bc25"/><path d="M15.85 61.86a4.617 4.617 0 0 0 0-6.51c-1.8-1.8-4.71-1.8-6.5 0a4.6 4.6 0 0 0 0 6.51c1.79 1.8 4.7 1.8 6.5 0z" fill="none" stroke-dasharray="0" stroke-linecap="round" stroke="#737373" stroke-miterlimit="50" stroke-width="2"/><path d="M14.38 60.39c.77-.78.77-2.03 0-2.81-.78-.77-2.03-.77-2.8 0-.77.78-.77 2.03 0 2.81.77.77 2.02.77 2.8 0" fill="#86bc25"/><path d="M28.14 49.91a32.872 32.872 0 0 0 19.88 6.67c6.84 0 13.19-2.08 18.46-5.65L20.64 5A32.958 32.958 0 0 0 15 23.49c0 7.49 2.48 14.38 6.66 19.93" fill="none" stroke-dasharray="0" stroke-linecap="round" stroke="#737373" stroke-miterlimit="50" stroke-width="2"/><path d="M44 27.79L46.78 25m3.49.28c.98-.98.98-2.57 0-3.55-.98-.97-2.56-.97-3.54 0a2.53 2.53 0 0 0 0 3.55c.98.98 2.56.98 3.54 0zM48 15c2.24-.01 4.5.85 6.21 2.57a8.775 8.775 0 0 1 2.58 6.23M48 8c3.93 0 7.87 1.5 10.88 4.52 3 3.01 4.5 6.95 4.5 10.89M48 1c5.71.01 11.44 2.2 15.79 6.56a22.37 22.37 0 0 1 6.55 15.83" fill="none" stroke-dasharray="0" stroke="#737373" stroke-miterlimit="50" stroke-width="2"/><path d="M5.25 71h37.9c2.35 0 4.26 1.91 4.26 4.26v3.73H1v-3.73C1 72.91 2.9 71 5.25 71zm16.13-21L16 55.39M16 62l8.28 8.3" fill="none" stroke-dasharray="0" stroke-linecap="round" stroke="#737373" stroke-miterlimit="50" stroke-width="2"/></svg>