<svg xmlns="http://www.w3.org/2000/svg" width="69.49" height="73.843" viewBox="0 0 69.49019073597537 73.84312539425287"><title>Fill 1</title><path d="M60.77 72.333h7.7v-14.19h-7.7z" fill="#86bc25"/><path d="M27.42 34.143l-7.65 38.19h20.91l-7.65-38.19" fill="none" stroke-dasharray="0" stroke="#737373" stroke-miterlimit="50" stroke-width="1.4"/><path d="M27.77 29.383l5.62-1.24v6.61h-5.62zm-24.01 5.44l52.61-12.27-1.26-5.41-52.6 12.27a2.248 2.248 0 0 0-1.68 2.7l.24 1.02a2.237 2.237 0 0 0 2.69 1.69z" fill="none" stroke-dasharray="0" stroke="#737373" stroke-miterlimit="50" stroke-width="1.4"/><path d="M54.77 16.603l2.43-15.46c4.88 2.59 9.01 8.18 10.66 15.26 1.64 7.08.38 13.92-2.86 18.41l-8.98-12.8zm6.79 5.54l-5.79.59m4.46-7.59l-5.46 2.1m9.84 19.16v21.65m-3.84 14.28h7.7v-14.19h-7.7zM5.61 35.283v37.42" fill="none" stroke-dasharray="0" stroke="#737373" stroke-miterlimit="50" stroke-width="1.4"/><path d="M41.15 72.583l-17.38-17.59 11.53-11.85" fill="none" stroke-dasharray="0" stroke-linejoin="round" stroke="#737373" stroke-miterlimit="50" stroke-width="1.4"/><path d="M19.77 72.583l17.4-17.59-11.52-11.85" fill="none" stroke-dasharray="0" stroke-linejoin="round" stroke="#737373" stroke-miterlimit="50" stroke-width="1.4"/><path d="M60.78 17.853c-.95-4.09-2.74-7.68-5.01-10.48l.98-6.23c4.88 2.59 9.01 8.18 10.65 15.26 1.64 7.08.39 13.92-2.85 18.41l-3.68-5.25c.83-3.54.86-7.58-.09-11.71" fill="#86bc25"/><path d="M60.78 17.853c-.95-4.09-2.74-7.68-5.01-10.48l.98-6.23c4.88 2.59 9.01 8.18 10.65 15.26 1.64 7.08.39 13.92-2.85 18.41l-3.68-5.25c.83-3.54.86-7.58-.09-11.71z" fill="none" stroke-dasharray="0" stroke="#737373" stroke-miterlimit="50" stroke-width="1.4"/></svg>