<svg xmlns="http://www.w3.org/2000/svg" width="74" height="74.099" viewBox="0 0 74 74.0991249360851"><title>Fill 1</title><path d="M19 56.939s3.6-6.82 16.33-6.82c0 0 11.25-.79 16.32 6.82 0 0-6.2 6.92-16.32 6.61 0 0-10.05.36-16.33-6.61m0-34.22s3.64 6.82 16.32 6.82c0 0 12.48.37 16.33-6.82 0 0-6.41-6.84-16.33-6.61 0 0-9.7-.5-16.32 6.61" fill="#86bc25"/><path d="M11.58 40.099h46.36M35 17.899v21.75m-24 0c0-12.99 10.51-23.55 23.48-23.55 12.96 0 23.47 10.59 23.47 23.59m-23.37-23.59S22 21.129 22 39.619m13-23.52s12.58 5.03 12.58 23.52m-12.26-9.71c-12.96 0-16.32-6.81-16.32-6.81m32.32 0s-3.36 6.81-16.32 6.81m0 33.47v-23.28m22.95 0c0 12.99-10.51 23.52-23.47 23.52-12.97 0-23.48-10.53-23.48-23.52m24 23.52s12.58-5.03 12.58-23.52m-13 23.52S22 58.589 22 40.099m29.32 16.81s-3.36-6.81-16.32-6.81m-16 6.81s3.36-6.81 16.32-6.81" stroke-dasharray="0" stroke-linejoin="round" stroke-linecap="round" stroke="#737373" stroke-miterlimit="50" stroke-width="2" fill="none"/><path d="M29.82 3.099c-2.27 5.11-7.62 5.32-13.74 9.26-4.78 3.08-8.48 7.73-10.92 12.87-3.91 8.24-4.21 18.13-.8 26.59" stroke-dasharray="0" stroke-linecap="round" stroke="#737373" stroke-miterlimit="50" stroke-width="2" fill="none"/><path d="M26 2.369l5.54-1.27 1.27 5.55M6 62.359c5.55-.58 8.41 3.96 14.87 7.3 5.05 2.61 10.92 3.49 16.59 3.04 9.07-.73 17.77-5.41 23.37-12.6" stroke-dasharray="0" stroke-linecap="round" stroke="#737373" stroke-miterlimit="50" stroke-width="2" fill="none"/><path d="M7.87 66.149L4 61.969l4.17-3.87m61.2-4.55c-3.27-4.52-.78-9.27-1.13-16.55-.27-5.69-2.44-11.22-5.66-15.92-5.17-7.51-13.56-12.71-22.58-13.98" stroke-dasharray="0" stroke-linecap="round" stroke="#737373" stroke-miterlimit="50" stroke-width="2" fill="none"/><path d="M72.1 50.099l-1.67 5.44-5.43-1.68" stroke-dasharray="0" stroke-linecap="round" stroke="#737373" stroke-miterlimit="50" stroke-width="2" fill="none"/></svg>