<svg xmlns="http://www.w3.org/2000/svg" width="71" height="91" viewBox="0 0 71 91"><title>Fill 1</title><path d="M20.86 17.54c0-2.17-3.93-7.54-3.93-7.54S13 15.37 13 17.54c0 2.16 1.76 3.92 3.93 3.92s3.93-1.76 3.93-3.92z" fill="#86bc25"/><path d="M8 26.28h18.31V8H8zM7 32h42.26M7 39h42.26M7 46h42.26M32 8h17.13M32 14h17.13M7 53h42.26" stroke-dasharray="0" stroke="#737373" stroke-miterlimit="50" stroke-width="2" fill="none"/><path d="M54.18 58.76V1H1v73h37.93c0-8.42 6.83-15.24 15.25-15.24zM21.13 67H7" stroke-dasharray="0" stroke="#737373" stroke-miterlimit="50" stroke-width="2" fill="none"/><path d="M48.5 70.23c0-1.42.4-2.13 1.21-2.13.81 0 1.22.71 1.22 2.13 0 1.43-.41 2.14-1.22 2.14s-1.21-.71-1.21-2.14zm3.87-3.11c-.33-.36-.72-.63-1.18-.83-.46-.19-.95-.29-1.48-.29-.54 0-1.04.1-1.49.29-.46.19-.85.46-1.18.83-.32.37-.58.81-.76 1.33-.19.53-.28 1.12-.28 1.78 0 .66.09 1.25.27 1.77.18.53.43.97.76 1.34.32.36.71.64 1.17.84.45.19.95.29 1.51.29.54 0 1.04-.1 1.5-.29.46-.2.85-.48 1.18-.85.33-.37.58-.81.77-1.33.18-.52.27-1.11.27-1.77 0-.66-.09-1.25-.28-1.78-.18-.52-.45-.96-.78-1.33zm7.41-.12l-8.29 15.17H49L57.3 67zM58.5 78.23c0-1.41.4-2.12 1.21-2.12.81 0 1.22.71 1.22 2.12 0 1.44-.41 2.16-1.22 2.16s-1.21-.72-1.21-2.16zm3.88-3.08c-.33-.37-.72-.66-1.18-.85-.45-.2-.95-.3-1.49-.3-.55 0-1.05.1-1.5.29-.46.2-.85.48-1.17.84-.33.37-.59.81-.77 1.33-.18.52-.27 1.11-.27 1.77 0 .67.09 1.27.27 1.79.18.53.44.97.76 1.34.32.36.71.64 1.17.84.45.19.95.29 1.51.29.54 0 1.04-.1 1.49-.3.46-.2.85-.48 1.18-.85.33-.36.58-.81.77-1.34.18-.52.27-1.11.27-1.77 0-.64-.09-1.23-.27-1.75-.19-.52-.44-.97-.77-1.33z" fill="#86bc25"/><path d="M69.51 74.24c0-8.42-6.83-15.24-15.26-15.24C45.83 59 39 65.82 39 74.24c0 8.41 6.83 15.23 15.25 15.23 8.43 0 15.26-6.82 15.26-15.23z" stroke-dasharray="0" stroke="#737373" stroke-miterlimit="50" stroke-width="2" fill="none"/><path d="M7 63.74h14.13V59H7z" fill="#86bc25"/></svg>