<svg xmlns="http://www.w3.org/2000/svg" width="139.565" height="100.565" viewBox="0 0 139.5647825815413 100.5647825815413"><title>Line</title><path d="M.565 99.73s5.35-54.26 57.05-37.59c51.71 16.67 62.45-41.14 62.45-41.14" fill="none" stroke-dasharray="0" stroke-linecap="square" stroke="#fff" stroke-miterlimit="50"/><path d="M99.565 20c0-11.046 8.954-20 20-20 11.045 0 20 8.954 20 20s-8.955 20-20 20c-11.046 0-20-8.954-20-20z" fill="#fff"/><path d="M107.565 20c0-6.627 5.372-12 12-12 6.627 0 12 5.373 12 12s-5.373 12-12 12c-6.628 0-12-5.373-12-12z" fill="none" stroke-dasharray="0" stroke="#86bc25" stroke-miterlimit="50"/></svg>