<svg xmlns="http://www.w3.org/2000/svg" width="19" height="16" viewBox="0 0 19 16"><title>Page 1</title><path d="M18.99 1.83c-.7.31-1.45.52-2.24.61.81-.48 1.42-1.25 1.72-2.16-.76.45-1.59.78-2.48.95A3.871 3.871 0 0 0 13.15 0c-2.16 0-3.9 1.74-3.9 3.9 0 .3.04.6.1.88C6.11 4.62 3.24 3.07 1.32.71.99 1.29.79 1.96.79 2.67c0 1.35.69 2.55 1.74 3.25-.64-.03-1.24-.2-1.77-.49v.05c0 1.88 1.34 3.46 3.13 3.82-.33.09-.67.13-1.03.13-.25 0-.49-.02-.73-.07a3.89 3.89 0 0 0 3.64 2.71 7.879 7.879 0 0 1-4.84 1.67c-.32 0-.63-.02-.93-.06a10.97 10.97 0 0 0 5.97 1.75c7.17 0 11.09-5.93 11.09-11.08 0-.17-.01-.34-.01-.51.76-.55 1.42-1.23 1.94-2.01"/></svg>