<svg xmlns="http://www.w3.org/2000/svg" width="120.964" height="102" viewBox="0 0 120.96362793952608 102"><title>Rectangle 3</title><path d="M41 30h63.72l-4.35 25.25H48.01z" fill="#86bc25"/><path d="M1 1h9.16c5.09 0 9.56 3.38 10.94 8.26l17.52 61.46c1.93 6.84 8.19 11.57 15.31 11.57h55.52M41.84 30.28l8.78 31.75h60.51l7.93-40.56c.46-2.32-1.32-4.47-3.69-4.47H23m35 13l3.85 23.74M74 30v23.74M103.85 30L100 53.74M88 30v23.74M42 30h61.99M46 44h55.85m2.14 50.98c0 3.31-2.68 5.98-6 5.98a5.98 5.98 0 1 1 0-11.96c3.32 0 6 2.68 6 5.98zm-39 0c0 3.31-2.68 5.98-6 5.98a5.98 5.98 0 1 1 0-11.96c3.32 0 6 2.68 6 5.98z" stroke-dasharray="0" stroke-linejoin="round" stroke-linecap="round" stroke="#737373" stroke-miterlimit="50" stroke-width="2" fill="none"/></svg>