<svg xmlns="http://www.w3.org/2000/svg" width="118" height="99" viewBox="0 0 118 99"><path fill="#86BC25" d="M44.58 9.79c0-2.09-1.7-3.79-3.79-3.79S37 7.7 37 9.79c0 2.1 1.7 3.79 3.79 3.79s3.79-1.69 3.79-3.79z"/><path fill="none" stroke="#737373" stroke-width="2" stroke-linecap="round" stroke-miterlimit="50" stroke-dasharray="0" d="M1 98h112.9"/><path fill="#B8B8B8" d="M1 90.66h12.41V51H1v39.66z"/><path fill="#86BC25" d="M101 90.24h12.41V30H101v60.24zM34 91h12.41V30H34v61z"/><path fill="none" stroke="#737373" stroke-width="2" stroke-miterlimit="50" stroke-dasharray="0" d="M49.58 9.8c0-4.86-3.94-8.8-8.79-8.8C35.93 1 32 4.94 32 9.8c0 4.86 3.93 8.79 8.79 8.79a8.79 8.79 0 0 0 8.79-8.79z"/><path fill="#86BC25" d="M111.58 10.79c0-2.09-1.7-3.79-3.79-3.79S104 8.7 104 10.79c0 2.1 1.7 3.79 3.79 3.79s3.79-1.69 3.79-3.79"/><path fill="none" stroke="#737373" stroke-width="2" stroke-miterlimit="50" stroke-dasharray="0" d="M116.58 10.8c0-4.86-3.939-8.8-8.79-8.8C102.93 2 99 5.94 99 10.8c0 4.86 3.93 8.79 8.79 8.79 4.851 0 8.79-3.93 8.79-8.79z"/><path fill="#B8B8B8" d="M68 90.92h12.41V49H68v41.92z"/><path fill="none" stroke="#737373" stroke-width="2" stroke-miterlimit="50" stroke-dasharray="0" d="M79.57 28.29c0-2.92-2.37-5.29-5.291-5.29C71.37 23 69 25.37 69 28.29s2.37 5.28 5.279 5.28a5.284 5.284 0 0 0 5.291-5.28z"/><path fill="#FFF" d="M12.57 31.29c0-2.92-2.37-5.29-5.29-5.29S2 28.37 2 31.29s2.36 5.29 5.28 5.29c2.92 0 5.29-2.37 5.29-5.29"/><path fill="none" stroke="#737373" stroke-width="2" stroke-miterlimit="50" stroke-dasharray="0" d="M12.57 31.29c0-2.92-2.37-5.29-5.29-5.29S2 28.37 2 31.29s2.36 5.29 5.28 5.29c2.92 0 5.29-2.37 5.29-5.29zM11 27.36L32.99 14M49 13l20.109 12.63m9.891.38L99.93 14"/></svg>