<svg xmlns="http://www.w3.org/2000/svg" width="71" height="69" viewBox="0 0 71 69"><title>Stroke 1</title><path d="M53.2 58.34V1H1v57.34c0 4.95 4.01 8.96 8.96 8.96h52.19c-4.94 0-8.95-4.01-8.95-8.96z" stroke-dasharray="0" stroke-linejoin="round" stroke-linecap="round" stroke="#737373" stroke-miterlimit="50" stroke-width="2" fill="none"/><path d="M53 29h16.27v31.55c0 3.95-3.2 7.16-7.16 7.16M1 28.59h19.93V1H1zM27 29h19.78M27 21h19.78M27 13h19.78M7 37h39.69" stroke-dasharray="0" stroke-linejoin="round" stroke-linecap="round" stroke="#737373" stroke-miterlimit="50" stroke-width="2" fill="none"/><path d="M15.14 53.63h-1.49l-4.12-7.84-.05.01v7.83H8V43h1.48l4.12 7.82h.05V43h1.49zm8.95-4.93h-3.61v3.81h4.25v1.12H19V43h5.7v1.14h-4.22v3.43h3.61zm10.79 1.86h.05L36.31 43h1.55l-2.18 10.63h-1.37l-1.85-7.54h-.05l-1.86 7.54h-1.37L27 43h1.56l1.39 7.55h.04L31.78 43h1.3zm10.32.56c0-.49-.14-.89-.41-1.21-.28-.31-.77-.6-1.47-.85-1-.32-1.77-.72-2.3-1.21-.54-.49-.81-1.15-.81-1.96 0-.84.3-1.53.89-2.08.59-.54 1.35-.81 2.28-.81.98 0 1.77.3 2.36.91.6.6.88 1.36.86 2.27l-.01.04h-1.43c0-.62-.16-1.13-.49-1.51-.33-.39-.77-.58-1.31-.58-.52 0-.93.17-1.22.5-.29.33-.44.74-.44 1.24 0 .46.16.85.46 1.15.31.3.83.58 1.55.85.97.32 1.71.73 2.21 1.24.51.52.76 1.18.76 1.99 0 .87-.29 1.56-.89 2.07-.6.52-1.38.77-2.35.77-.93 0-1.75-.28-2.44-.83-.69-.56-1.02-1.35-1-2.39l.02-.04h1.43c0 .72.19 1.26.57 1.61.38.36.86.53 1.42.53.55 0 .98-.15 1.29-.46.32-.31.47-.72.47-1.24M5 24.74h12.08V5H5z" fill="#86bc25"/></svg>