<svg xmlns="http://www.w3.org/2000/svg" width="71.536" height="63.994" viewBox="0 0 71.53615398277248 63.99375653290781"><title>Stroke 1</title><path d="M4.036 25.314l9.41-10.82 12.48 19.45 14.23-11.63 9.18 10.62 8.27-6.76 6.45 8.86" stroke-dasharray="0" stroke="#737373" stroke-miterlimit="50" stroke-width="2" fill="none"/><path d="M67.496 38.864l-6.46-3.99 3.3-.34 1.35-3.04z" fill="#737373"/><path d="M67.496 38.864l-6.46-3.99 3.3-.34 1.35-3.04z" stroke-dasharray="0" stroke="#737373" stroke-miterlimit="50" stroke-width="2" fill="none"/><path d="M4.036 29.884v32.59h66.79l-.08-14.43-7.25 6.7-5.03-5.04-4.01 4.01v-16.26l-9.91 9.91v-6.13l-5.22-6.74-9.92 8.63-3.25-4.01-10.52 8.25v-20.21l-4.39 3.41-3.17-5.07z" fill="#86bc25"/><path d="M70.826 62.644H4.036V7.494" stroke-dasharray="0" stroke="#737373" stroke-miterlimit="50" stroke-width="2" fill="none"/><path d="M4.906 2.494l2.87 7.03-2.87-1.67-2.87 1.67z" fill="#737373"/><path d="M4.906 2.494l2.87 7.03-2.87-1.67-2.87 1.67z" stroke-dasharray="0" stroke="#737373" stroke-miterlimit="50" stroke-width="2" fill="none"/></svg>