<svg xmlns="http://www.w3.org/2000/svg" width="97" height="107" viewBox="0 0 97 107"><title>Fill 1</title><path d="M90.04 69.14L77.92 57C59.43 75.53 38 67.75 38 67.75c7.51 5.68 16.85 9.06 26.98 9.06 9.28 0 17.91-2.83 25.06-7.67" fill="#86bc25"/><path d="M37.65 67.67a6.253 6.253 0 0 0 0-8.84c-2.44-2.44-6.39-2.44-8.82 0a6.253 6.253 0 0 0 0 8.84c2.43 2.44 6.38 2.44 8.82 0z" stroke-dasharray="0" stroke-linecap="round" stroke="#737373" stroke-miterlimit="50" stroke-width="2" fill="none"/><path d="M34.59 65.6a2.698 2.698 0 0 0 0-3.81 2.686 2.686 0 0 0-3.8 0 2.698 2.698 0 0 0 0 3.81 2.686 2.686 0 0 0 3.8 0" fill="#86bc25"/><path d="M21.65 83.67a6.271 6.271 0 0 0 0-8.84c-2.44-2.44-6.39-2.44-8.82 0a6.253 6.253 0 0 0 0 8.84c2.43 2.44 6.38 2.44 8.82 0z" stroke-dasharray="0" stroke-linecap="round" stroke="#737373" stroke-miterlimit="50" stroke-width="2" fill="none"/><path d="M18.59 81.6a2.698 2.698 0 0 0 0-3.81 2.686 2.686 0 0 0-3.8 0 2.698 2.698 0 0 0 0 3.81 2.686 2.686 0 0 0 3.8 0" fill="#86bc25"/><path d="M37.83 66.94A44.507 44.507 0 0 0 64.81 76c9.28 0 17.91-2.83 25.06-7.67L27.65 6A44.76 44.76 0 0 0 20 31.1c0 10.15 3.37 19.52 9.04 27.04" stroke-dasharray="0" stroke-linecap="round" stroke="#737373" stroke-miterlimit="50" stroke-width="2" fill="none"/><path d="M59 37.78L62.78 34m5.02-.19c1.32-1.33 1.32-3.49 0-4.81a3.398 3.398 0 0 0-4.81 0c-1.32 1.32-1.32 3.48 0 4.81a3.398 3.398 0 0 0 4.81 0zM65 19a11.78 11.78 0 0 1 8.43 3.49 11.87 11.87 0 0 1 3.51 8.45M65 10c5.33 0 10.68 2.04 14.76 6.13s6.12 9.44 6.12 14.79M65 1c7.75.01 15.52 2.98 21.44 8.91 5.91 5.92 8.87 13.71 8.88 21.47" stroke-dasharray="0" stroke="#737373" stroke-miterlimit="50" stroke-width="2" fill="none"/><path d="M6.77 95H58.2c3.19 0 5.78 2.59 5.78 5.79v5.06H1v-5.06C1 97.59 3.59 95 6.77 95zM28.3 68L21 75.32M21 84l11.24 11.26" stroke-dasharray="0" stroke-linecap="round" stroke="#737373" stroke-miterlimit="50" stroke-width="2" fill="none"/></svg>