<svg xmlns="http://www.w3.org/2000/svg" width="71" height="57" viewBox="0 0 71 57"><title>Fill 1</title><path d="M11.47 18.12H8.7c-.39 0-.7-.31-.7-.69V14.7c0-.39.31-.7.7-.7h2.77c.38 0 .7.31.7.7v2.73a.7.7 0 0 1-.7.69zm6 0H14.7c-.39 0-.7-.31-.7-.69V14.7c0-.39.31-.7.7-.7h2.77c.38 0 .7.31.7.7v2.73a.7.7 0 0 1-.7.69m6 0H20.7c-.39 0-.7-.31-.7-.69V14.7c0-.39.31-.7.7-.7h2.77c.38 0 .7.31.7.7v2.73a.7.7 0 0 1-.7.69m7 0H27.7c-.39 0-.7-.31-.7-.69V14.7c0-.39.31-.7.7-.7h2.77c.38 0 .7.31.7.7v2.73a.7.7 0 0 1-.7.69m6 0H33.7c-.39 0-.7-.31-.7-.69V14.7c0-.39.31-.7.7-.7h2.77c.38 0 .7.31.7.7v2.73a.7.7 0 0 1-.7.69m6 0H39.7c-.39 0-.7-.31-.7-.69V14.7c0-.39.31-.7.7-.7h2.77c.38 0 .7.31.7.7v2.73a.7.7 0 0 1-.7.69m7 0H46.7c-.39 0-.7-.31-.7-.69V14.7c0-.39.31-.7.7-.7h2.77c.38 0 .7.31.7.7v2.73a.7.7 0 0 1-.7.69m6 0H52.7a.7.7 0 0 1-.7-.69V14.7c0-.39.32-.7.7-.7h2.77c.38 0 .7.31.7.7v2.73a.7.7 0 0 1-.7.69m6 0H58.7c-.39 0-.7-.31-.7-.69V14.7c0-.39.31-.7.7-.7h2.77c.38 0 .7.31.7.7v2.73a.7.7 0 0 1-.7.69m-38 7H20.7c-.39 0-.7-.31-.7-.69V21.7c0-.39.31-.7.7-.7h2.77c.38 0 .7.31.7.7v2.73a.7.7 0 0 1-.7.69m7 0H27.7c-.39 0-.7-.31-.7-.69V21.7c0-.39.31-.7.7-.7h2.77c.38 0 .7.31.7.7v2.73a.7.7 0 0 1-.7.69m6 0H33.7c-.39 0-.7-.31-.7-.69V21.7c0-.39.31-.7.7-.7h2.77c.38 0 .7.31.7.7v2.73a.7.7 0 0 1-.7.69m6 0H39.7c-.39 0-.7-.31-.7-.69V21.7c0-.39.31-.7.7-.7h2.77c.38 0 .7.31.7.7v2.73a.7.7 0 0 1-.7.69m7 0H46.7c-.39 0-.7-.31-.7-.69V21.7c0-.39.31-.7.7-.7h2.77c.38 0 .7.31.7.7v2.73a.7.7 0 0 1-.7.69m-19 6H27.7c-.39 0-.7-.31-.7-.69V27.7c0-.39.31-.7.7-.7h2.77c.38 0 .7.31.7.7v2.73a.7.7 0 0 1-.7.69m6 0H33.7c-.39 0-.7-.31-.7-.69V27.7c0-.39.31-.7.7-.7h2.77c.38 0 .7.31.7.7v2.73a.7.7 0 0 1-.7.69m6 0H39.7c-.39 0-.7-.31-.7-.69V27.7c0-.39.31-.7.7-.7h2.77c.38 0 .7.31.7.7v2.73a.7.7 0 0 1-.7.69" fill="#86bc25"/><path d="M58 32.61V28h1.83c1.01 0 1.82.81 1.82 1.81M69.08 36c-.09 3.42-.67 6.81-1.73 10.07-.34 1.05-.5 1.88-.5 1.88H59" stroke-dasharray="0" stroke-linejoin="round" stroke-linecap="round" stroke="#737373" stroke-miterlimit="50" stroke-width="2" fill="none"/><path d="M58.1 27.6v-4.79c0-1-.82-1.81-1.83-1.81-1.01 0-1.82.81-1.82 1.81v13.36l-1.26-3.24a2.19 2.19 0 0 0-2.03-1.37c-1.19 0-2.16.96-2.16 2.14 0 2.17.57 4.3 1.7 6.16.43.71.95 1.45 1.56 2.12 2.24 2.48 2.83 5.84 2.83 5.84M62 33.61V29h1.83c1.01 0 1.82.81 1.82 1.81v4.37M66 31h1.83c1.01 0 1.82.81 1.82 1.81v2.8M54 55.56h14.16V50H54z" stroke-dasharray="0" stroke-linejoin="round" stroke-linecap="round" stroke="#737373" stroke-miterlimit="50" stroke-width="2" fill="none"/><path d="M65.57 53.28c0-.15-.13-.28-.28-.28-.16 0-.29.13-.29.28 0 .16.13.29.29.29.15 0 .28-.13.28-.29z" stroke-dasharray="0" stroke-linejoin="round" stroke-linecap="round" stroke="#737373" stroke-miterlimit="50" stroke-width="2" fill="none"/><path d="M66.04 25.78V11H5v14.78" stroke-dasharray="0" stroke-linejoin="round" stroke="#737373" stroke-miterlimit="50" stroke-width="2" fill="none"/><path d="M19.83 45h30.02m-38.2-12.39V28H9.83C8.82 28 8 28.81 8 29.81M1 36c.09 3.42.66 6.81 1.72 10.07.35 1.05.51 1.88.51 1.88h7.85M12 27.6v-4.79c0-1 .82-1.81 1.83-1.81 1.01 0 1.82.81 1.82 1.81v13.36l1.26-3.24c.32-.82 1.13-1.37 2.02-1.37 1.2 0 2.17.96 2.17 2.14 0 2.17-.58 4.3-1.7 6.16-.43.71-.95 1.45-1.56 2.12C15.6 44.46 15 47.82 15 47.82" stroke-dasharray="0" stroke-linejoin="round" stroke-linecap="round" stroke="#737373" stroke-miterlimit="50" stroke-width="2" fill="none"/><path d="M8.65 33.61V29H6.83C5.82 29 5 29.81 5 30.81v4.37M4.65 31H2.83C1.82 31 1 31.81 1 32.81v2.8m1 19.95h14.16V50H2z" stroke-dasharray="0" stroke-linejoin="round" stroke-linecap="round" stroke="#737373" stroke-miterlimit="50" stroke-width="2" fill="none"/><path d="M5 53.28c0-.15.13-.28.29-.28.15 0 .28.13.28.28 0 .16-.13.29-.28.29a.29.29 0 0 1-.29-.29zM35.33 1h11.55c.99 0 1.79.79 1.79 1.77 0 .97-.8 1.76-1.79 1.76H23.79c-.99 0-1.79.79-1.79 1.77 0 .97.8 1.76 1.79 1.76h9.77c.98 0 1.78.79 1.78 1.77v1.76" stroke-dasharray="0" stroke-linejoin="round" stroke-linecap="round" stroke="#737373" stroke-miterlimit="50" stroke-width="2" fill="none"/></svg>