<svg id="Layer_1" data-name="Layer 1" xmlns="http://www.w3.org/2000/svg" viewBox="0 0 191.28 35.46"><defs><style>.cls-1{fill:#fff}.cls-2{fill:#5baf30}</style></defs><title>logo</title><path class="cls-1" d="M45.12 15.88c3.1 0 4 2.83 4 4.38H40.8a4.23 4.23 0 0 1 4.32-4.38zM54 29a22.51 22.51 0 0 1-2.72.76 16.74 16.74 0 0 1-3.33.34c-3.66 0-6.53-1.22-7-4.12H56.6a18.14 18.14 0 0 0 .32-3.33C56.92 16 53.64 10 45.26 10c-8.14 0-12.47 6.38-12.47 13.53 0 8.24 5.76 13 13.81 13a23.46 23.46 0 0 0 4.78-.53 19.37 19.37 0 0 0 3.89-1.22zm112.45-13.12c3.1 0 4 2.83 4 4.38h-8.35a4.23 4.23 0 0 1 4.35-4.38zm8.9 13.12a22.48 22.48 0 0 1-2.72.76 16.73 16.73 0 0 1-3.33.34c-3.66 0-6.53-1.22-7-4.12h15.63a18.15 18.15 0 0 0 .32-3.33C178.25 16 175 10 166.59 10c-8.14 0-12.47 6.38-12.47 13.53 0 8.24 5.76 13 13.81 13a23.48 23.48 0 0 0 4.78-.43 19.37 19.37 0 0 0 3.89-1.22zM60.75 1.56v34.35h8.47V1.56zm25.49 28.6c-2.75 0-4.56-2.72-4.56-6.93 0-3.35 1.21-6.93 4.59-6.93s4.42 3.71 4.42 6.9c0 4.23-1.76 6.96-4.45 6.96zm-.11 6.29c6.61 0 13.31-4.16 13.31-13.47 0-5.54-3.28-13-12.89-13C76.65 10 73 17.22 73 23.41c0 7.76 5.44 13.04 13.13 13.04zm16.99-25.88v25.34h8.47V10.57zm0-8.99v6.58h8.47V1.58zm15.19 2.09v6.89h-3.26v6.28h3.26v10.38c0 5.71 2.61 9.2 8.57 9.2a24.83 24.83 0 0 0 3.54-.29 19 19 0 0 0 2.45-.49l-.06-6.64a18.3 18.3 0 0 1-2.9.42 3.28 3.28 0 0 1-2.42-.83 3.81 3.81 0 0 1-.89-2.79v-9h5.48v-6.24h-5.48V2.73zm19.6 0v6.89h-3.26v6.28h3.26v10.38c0 5.71 2.61 9.2 8.57 9.2a24.78 24.78 0 0 0 3.54-.29 19 19 0 0 0 2.45-.49l-.06-6.64a18.28 18.28 0 0 1-2.9.42 3.28 3.28 0 0 1-2.42-.83 3.81 3.81 0 0 1-.89-2.79v-9h5.48v-6.24h-5.48V2.73z" transform="translate(0 -1)"/><circle class="cls-2" cx="186.59" cy="30.77" r="4.69"/><path class="cls-1" d="M0 35.94h11.59c13.13-.68 18.59-8.45 18.59-17.42C30.23 7.28 22.67 1 9.63 1c-3.35 0-6.32.11-9.63.39zm12.26-6.84H8.35V8c.93-.08 2.11-.14 2.9-.14 4.93 0 10.18 3.2 10.18 10.58 0 7.74-4.94 10.31-9.17 10.66z" transform="translate(0 -1)"/></svg>