<svg version="1.2" baseProfile="tiny" xmlns="http://www.w3.org/2000/svg" viewBox="0 0 64 64"><path d="M53.5 25.5C53.5 13.6 43.9 4 32 4c-11.7 0-21.2 9.3-21.4 21v1.1C10.8 40 26.6 54.8 32 60c15.2-12.4 19.7-23.8 21-29.9 0-.2.1-.4.1-.6.1-.7.2-1.2.3-1.8.1-1.5.1-2.2.1-2.2z"/><circle fill="#5BAF30" cx="41.3" cy="31.9" r="2.4"/><path fill="#FFF" d="M23.6 34h6c6.7-.3 9.6-4.3 9.6-9 0-5.8-3.9-9-10.6-9-1.7 0-3.2.1-4.9.2V34zm6.3-3.5h-2V19.7c.5 0 1.1-.1 1.5-.1 2.5 0 5.2 1.6 5.2 5.4 0 4-2.5 5.3-4.7 5.5z"/></svg>